<svg xmlns="http://www.w3.org/2000/svg" xmlns:xlink="http://www.w3.org/1999/xlink" viewBox="0 0 3000 2000"><defs><clipPath id="clippath"><rect width="2999.95" height="1999.97" y=".03" style="fill:none"/></clipPath><linearGradient id="linear-gradient" x1="1500.03" x2="1500.03" y1="1998.14" y2="1379.31" gradientUnits="userSpaceOnUse"><stop offset="0" stop-color="#fff"/><stop offset=".14" stop-color="#fbfbfb"/><stop offset=".27" stop-color="#f0f0f0"/><stop offset=".39" stop-color="#ddd"/><stop offset=".51" stop-color="#c3c3c3"/><stop offset=".63" stop-color="#a1a1a1"/><stop offset=".74" stop-color="#787878"/><stop offset=".86" stop-color="#464646"/><stop offset=".97" stop-color="#0f0f0f"/><stop offset="1"/></linearGradient><mask id="mask" width="5355.8" height="620.66" x="-1177.87" y="1379.31" maskUnits="userSpaceOnUse"><rect width="2999.95" height="618.84" x=".06" y="1379.31" style="fill:url(#linear-gradient)"/></mask><linearGradient xlink:href="#linear-gradient" id="linear-gradient-2" x1="10008.69" x2="10008.69" y1="1070.14" y2="451.3" gradientTransform="rotate(-180 5754.34 535.985)"/><mask id="mask-1" width="5355.8" height="620.66" x="-1177.91" y="0" maskUnits="userSpaceOnUse"><rect width="2999.95" height="618.84" x=".02" y="1.84" style="fill:url(#linear-gradient-2)"/></mask></defs><g style="isolation:isolate"><rect id="Background" width="2999.95" height="1999.97" x=".06" style="fill:#14133e;mix-blend-mode:screen"/><g id="Object"><g style="clip-path:url(#clippath)"><g style="mask:url(#mask)"><path d="m4177.93,1995.2l-54.37-36.47v-.21h-.31l-107.67-72.23v-.17h-.26l-107.72-72.26v-.14h-.21l-107.77-72.29v-.11h-.16l-107.2-71.92-.61-.41v-.07h-.11l-107.87-72.36v-.04h-.06l-107.92-72.39h0s-.01,0-.01,0l-215.13-144.32-.8,1.2v-1.68H-220.28v2.85l-1.55-2.4-449.9,289.61-506.14,325.8,1.54,2.4v.58h.37l1.17,1.83,2.84-1.83h330.58l1.27,1.73,2.36-1.73h330.98l1.36,1.6,1.88-1.6H-172.12l1.46,1.43,1.4-1.43H162.56l1.52,1.2.95-1.2h332.3l1.49.9.54-.9h332.95l1.25.51.21-.51h334.27l.21.04v-.04h998.01l.13.37,1.05-.37h333.25l.42.78,1.45-.78h332.49l.81,1.11,1.52-1.11h331.97l1.25,1.36,1.48-1.36h331.54l1.72,1.55,1.39-1.55h331.12l2.2,1.69,1.3-1.69h330.72l2.67,1.8,1.21-1.8h1.59v-1.14h-.82l1.21-1.8Zm-276.91-36.68l-44.7-32.77h104.99l46.78,32.77h-107.08Zm115.22,5.71l46.79,32.78h-109.52l-44.71-32.78h107.44Zm-442.42-5.71l-38.46-32.77h105.17l40.54,32.77h-107.25Zm114.31,5.71l40.54,32.78h-109.69l-38.47-32.78h107.61Zm-441.5-5.71l-32.23-32.77h105.33l34.31,32.77h-107.41Zm113.38,5.71l34.31,32.78h-109.85l-32.23-32.78h107.77Zm-440.57-5.71l-26-32.77h105.48l28.07,32.77h-107.56Zm112.45,5.71l28.07,32.78h-110l-25.99-32.78h107.92Zm-439.62-5.71l-19.76-32.77h105.61l21.84,32.77h-107.69Zm111.49,5.71l21.84,32.78h-110.13l-19.76-32.78h108.05Zm-438.65-5.71l-13.52-32.77h105.71l15.59,32.77h-107.79Zm110.51,5.71l15.6,32.78h-110.23l-13.52-32.78h108.15Zm-1418.96-5.71l11.42-32.77h105.76l-9.34,32.77h-107.84Zm106.21,5.71l-9.34,32.78h-110.28l11.42-32.78h108.2Zm-433.28-5.71l17.66-32.77h105.67l-15.58,32.77h-107.76Zm105.04,5.71l-15.58,32.78h-110.19l17.66-32.78h108.11Zm-432.1-5.71l23.9-32.77h105.57l-21.82,32.77h-107.65Zm103.85,5.71l-21.82,32.78h-110.09l23.9-32.78h108.01Zm-430.9-5.71l30.13-32.77h105.44l-28.05,32.77H-24.51Zm102.63,5.71l-28.05,32.78H-59.89l30.13-32.78h107.88Zm-429.66-5.71l36.37-32.77h105.28l-34.29,32.77h-107.36Zm101.39,5.71l-34.29,32.78h-109.8l36.37-32.78h107.72Zm-428.42-5.71l42.6-32.77h105.11l-40.52,32.77h-107.2Zm100.14,5.71l-40.53,32.78h-109.64l42.61-32.78h107.56Zm-427.16-5.71l48.84-32.77h104.94l-46.76,32.77h-107.02Zm98.88,5.71l-46.76,32.78h-109.46l48.84-32.78h107.38Zm4264.23-512.51h-70.78l-46.79-32.78h68.7l48.87,32.78Zm85.49,110.88h-81.97l-44.7-32.78h79.88l46.79,32.78Zm-44.79-32.78h75.73l48.86,32.78h-77.81l-46.78-32.78Zm148.13,105.18h-86.55l-44.7-32.78h84.48l46.78,32.78Zm-44.79-32.78h80.33l48.86,32.78h-82.4l-46.78-32.78Zm251.46,177.58h-95.74l-44.7-32.78h93.66l46.78,32.78Zm-44.79-32.78h89.51l48.86,32.78h-91.59l-46.79-32.78Zm148.13,105.18h-100.33l-44.7-32.78h98.25l46.78,32.78Zm-44.79-32.78h94.1l48.86,32.78h-96.18l-46.78-32.78Zm148.12,105.18h-104.92l-44.7-32.78h102.84l46.78,32.78Zm-44.79-32.78h98.69l48.86,32.78h-100.77l-46.78-32.78Zm-4412.67-72.4h98.37l-40.52,32.78h-100.45l42.6-32.78Zm-44.47,32.78h-96.53l44.68-32.78h94.45l-42.6,32.78Zm3416.51-183.29l-30.15-32.78h83.91l32.23,32.78h-85.99Zm-7.75,0h-86.04l-28.08-32.78h83.96l30.15,32.78Zm-87.54,0h-89.2l-26-32.78h87.11l28.08,32.78Zm-90.65,0h-86.41l-23.92-32.78h84.33l25.99,32.78Zm-93.47,0h-86.45l-21.84-32.78h84.37l23.92,32.78Zm-87.82,0h-89.32l-19.76-32.78h87.24l21.84,32.78Zm-90.65,0h-86.76l-17.68-32.78h84.68l19.76,32.78Zm-93.25,0h-86.8l-15.6-32.78h84.72l17.68,32.78Zm-88.06,0h-89.42l-13.53-32.78h87.34l15.6,32.78Zm-90.66,0h-87.03l-11.44-32.78h84.95l13.52,32.78Zm-93.08,0h-87.05l-9.37-32.78h84.97l11.45,32.78Zm-88.24,0h-89.49l-7.29-32.78h87.41l9.37,32.78Zm-90.66,0h-87.2l-5.2-32.78h85.12l7.29,32.78Zm-92.98,0h-87.21l-3.12-32.78h85.13l5.21,32.78Zm-88.36,0h-89.52l-1.05-32.78h87.45l3.13,32.78Zm-90.67,0h-87.24l1.03-32.78h85.16l1.05,32.78Zm-92.95,0h-87.24l3.11-32.78h85.16l-1.03,32.78Zm-88.39,0h-89.52l5.19-32.78h87.44l-3.11,32.78Zm-90.67,0h-87.17l7.27-32.78h85.09l-5.19,32.78Zm-93.01,0h-87.16l9.35-32.78h85.08l-7.27,32.78Zm-88.34,0h-89.47l11.43-32.78h87.39l-9.35,32.78Zm-90.68,0h-86.98l13.5-32.78h84.9l-11.43,32.78Zm-93.15,0h-86.95l15.58-32.78h84.88l-13.5,32.78Zm-88.22,0h-89.39l17.66-32.78h87.31l-15.58,32.78Zm-90.69,0h-86.69l19.74-32.78h84.61l-17.66,32.78Zm-93.35,0h-86.66l21.82-32.78h84.58l-19.74,32.78Zm-88.03,0h-89.28l23.9-32.78h87.2l-21.82,32.78Zm-90.69,0h-86.32l25.97-32.78h84.24l-23.9,32.78Zm-93.6,0h-86.28l28.05-32.78h84.2l-25.98,32.78Zm-87.78,0h-89.15l30.13-32.78h87.07l-28.06,32.78Zm-90.7,0h-85.89l32.21-32.78h83.81l-30.13,32.78Zm-93.89,0H60.44l34.29-32.78h83.77l-32.21,32.78Zm-5.61,5.71l-32.21,32.78H20.17l34.29-32.78h86.21Zm8,0h86.25l-30.13,32.78h-88.33l32.21-32.78Zm87.8,0h89.51l-28.05,32.78h-91.59l30.13-32.78Zm91.01,0h86.64l-25.97,32.78h-88.72l28.05-32.78Zm93.92,0h86.69l-23.9,32.78h-88.76l25.97-32.78Zm88.1,0h89.64l-21.82,32.78h-91.72l23.9-32.78Zm91.01,0h87.02l-19.74,32.78h-89.1l21.82-32.78Zm93.68,0h87.05l-17.66,32.78h-89.13l19.74-32.78Zm88.35,0h89.75l-15.58,32.78h-91.83l17.66-32.78Zm91.01,0h87.32l-13.5,32.78h-89.4l15.58-32.78Zm93.48,0h87.35l-11.42,32.78h-89.42l13.5-32.78Zm88.55,0h89.83l-9.35,32.78h-91.91l11.42-32.78Zm91.02,0h87.52l-7.27,32.78h-89.6l9.35-32.78Zm93.36,0h87.53l-5.19,32.78h-89.61l7.27-32.78Zm88.69,0h89.88l-3.11,32.78h-91.96l5.19-32.78Zm91.03,0h87.6l-1.03,32.78h-89.68l3.11-32.78Zm93.31,0h87.6l1.05,32.78h-89.68l1.03-32.78Zm88.75,0h89.89l3.13,32.78h-91.96l-1.05-32.78Zm91.03,0h87.57l5.2,32.78h-89.65l-3.13-32.78Zm93.35,0h87.56l7.28,32.78h-89.64l-5.21-32.78Zm88.73,0h89.86l9.36,32.78h-91.94l-7.28-32.78Zm91.04,0h87.41l11.44,32.78h-89.49l-9.37-32.78Zm93.46,0h87.39l13.52,32.78h-89.47l-11.44-32.78Zm88.63,0h89.78l15.6,32.78h-91.86l-13.52-32.78Zm91.04,0h87.15l17.68,32.78h-89.24l-15.6-32.78Zm93.64,0h87.12l19.76,32.78h-89.2l-17.68-32.78Zm88.46,0h89.68l21.84,32.78h-91.76l-19.76-32.78Zm91.06,0h86.81l23.92,32.78h-88.89l-21.84-32.78Zm93.88,0h86.77l25.99,32.78h-88.85l-23.91-32.78Zm88.22,0h89.55l28.07,32.78h-91.63l-25.99-32.78Zm91.06,0h86.4l30.15,32.78h-88.48l-28.07-32.78Zm94.16,0h86.35l32.23,32.78h-88.43l-30.15-32.78Zm87.96,0h89.41l34.3,32.78h-91.48l-32.23-32.78Zm-5.61-5.71l-32.23-32.78h86.97l34.31,32.78h-89.04Zm-33.35-33.92l-32.23-32.78h84.82l34.31,32.78h-86.89Zm-1.6,0h-83.84l-30.15-32.78h81.76l32.23,32.78Zm-91.59,0h-83.89l-28.07-32.78h81.81l30.15,32.78Zm-85.39,0h-87.04l-25.99-32.78h84.96l28.07,32.78Zm-88.5,0h-84.26l-23.91-32.78h82.18l25.99,32.78Zm-91.32,0h-84.3l-21.84-32.78h82.22l23.91,32.78Zm-85.67,0h-87.17l-19.76-32.78h85.1l21.83,32.78Zm-88.5,0h-84.61l-17.68-32.78h82.53l19.75,32.78Zm-91.09,0h-84.65l-15.6-32.78h82.56l17.68,32.78Zm-85.91,0h-87.27l-13.52-32.78h85.19l15.6,32.78Zm-88.51,0h-84.88l-11.44-32.78h82.8l13.52,32.78Zm-90.93,0h-84.9l-9.36-32.78h82.82l11.44,32.78Zm-86.09,0h-87.34l-7.28-32.78h85.26l9.36,32.78Zm-88.51,0h-85.05l-5.21-32.78h82.97l7.29,32.78Zm-90.83,0h-85.06l-3.13-32.78h82.98l5.2,32.78Zm-86.2,0h-87.38l-1.05-32.78h85.3l3.13,32.78Zm-88.52,0h-85.09l1.03-32.78h83.01l1.05,32.78Zm-90.8,0h-85.09l3.11-32.78h83.01l-1.03,32.78Zm-86.24,0h-87.36l5.19-32.78h85.29l-3.11,32.78Zm-88.52,0h-85.02l7.27-32.78h82.94l-5.19,32.78Zm-90.86,0h-85.01l9.35-32.78h82.93l-7.27,32.78Zm-86.19,0h-87.32l11.42-32.78h85.24l-9.34,32.78Zm-88.53,0h-84.83l13.5-32.78h82.75l-11.42,32.78Zm-91,0h-84.8l15.58-32.78h82.72l-13.5,32.78Zm-86.07,0h-87.24l17.66-32.78h85.16l-15.58,32.78Zm-88.54,0h-84.54l19.74-32.78h82.46l-17.66,32.78Zm-91.2,0h-84.51l21.82-32.78h82.43l-19.74,32.78Zm-85.88,0h-87.12l23.89-32.78h85.05l-21.82,32.78Zm-88.54,0h-84.17l25.97-32.78h82.09l-23.89,32.78Zm-91.45,0h-84.13l28.05-32.78h82.05l-25.97,32.78Zm-85.63,0h-87l30.13-32.78h84.92l-28.05,32.78Zm-88.55,0h-83.74l32.21-32.78h81.66l-30.13,32.78Zm-91.74,0h-83.7l34.29-32.78h81.62l-32.21,32.78Zm-85.35,0H7.43l36.37-32.78h84.76l-34.29,32.78Zm-1.19,1.14l-34.29,32.78H-30.21l36.37-32.78h86.91Zm-124.98,32.78h-85.42l38.45-32.78H4.46l-36.37,32.78Zm84.72,5.71l-34.29,32.78h-91.43l36.37-32.78H52.81Zm-35.48,33.92l-34.29,32.77h-93.58l36.37-32.77H17.33Zm1.65,0h88.36l-32.21,32.77H-15.31l34.29-32.77Zm96.36,0h88.4l-30.13,32.77h-90.48l32.21-32.77Zm89.95,0h91.66l-28.05,32.77h-93.74l30.13-32.77Zm93.16,0h88.79l-25.98,32.77h-90.87l28.05-32.77Zm96.07,0h88.84l-23.9,32.77h-90.92l25.97-32.77Zm90.25,0h91.79l-21.82,32.77h-93.87l23.89-32.77Zm93.16,0h89.17l-19.74,32.77h-91.25l21.82-32.77Zm95.83,0h89.2l-17.66,32.77h-91.29l19.74-32.77Zm90.5,0h91.9l-15.58,32.77h-93.98l17.66-32.77Zm93.16,0h89.47l-13.5,32.77h-91.54l15.58-32.77Zm95.64,0h89.5l-11.42,32.77h-91.57l13.5-32.77Zm90.7,0h91.99l-9.34,32.77h-94.07l11.42-32.77Zm93.17,0h89.67l-7.27,32.77h-91.75l9.34-32.77Zm95.51,0h89.68l-5.19,32.77h-91.76l7.26-32.77Zm90.84,0h92.03l-3.11,32.77h-94.1l5.19-32.77Zm93.18,0h89.76l-1.03,32.77h-91.83l3.11-32.77Zm95.46,0h89.76l1.05,32.77h-91.84l1.03-32.77Zm90.9,0h92.04l3.12,32.77h-94.12l-1.05-32.77Zm93.19,0h89.72l5.21,32.77h-91.8l-3.12-32.77Zm95.5,0h89.71l7.28,32.77h-91.79l-5.21-32.77Zm90.88,0h92.01l9.37,32.77h-94.09l-7.29-32.77Zm93.19,0h89.56l11.44,32.77h-91.64l-9.36-32.77Zm95.61,0h89.54l13.52,32.77h-91.62l-11.44-32.77Zm90.78,0h91.93l15.6,32.77h-94.01l-13.52-32.77Zm93.2,0h89.31l17.68,32.77h-91.39l-15.6-32.77Zm95.8,0h89.27l19.76,32.77h-91.36l-17.67-32.77Zm90.61,0h91.83l21.84,32.77h-93.91l-19.76-32.77Zm93.2,0h88.97l23.91,32.77h-91.04l-21.84-32.77Zm96.03,0h88.92l25.99,32.77h-91l-23.92-32.77Zm90.38,0h91.71l28.07,32.77h-93.79l-25.99-32.77Zm93.21,0h88.56l30.15,32.77h-90.63l-28.07-32.77Zm96.31,0h88.51l32.22,32.77h-90.58l-30.15-32.77Zm90.11,0h91.56l34.31,32.77h-93.64l-32.23-32.77Zm93.21,0h88.09l36.39,32.77h-90.17l-34.31-32.77Zm-1.2-1.14l-34.31-32.78h85.94l36.39,32.78h-88.02Zm-40.28-38.49l-34.31-32.78h83.5l36.39,32.78h-85.58Zm-35.5-33.92l-34.31-32.78h81.35l36.38,32.78h-83.43Zm-40.28-38.48l-34.31-32.77h78.91l36.38,32.77h-80.99Zm-1.65,0h-84.45l-32.23-32.77h82.38l34.31,32.77Zm-86.06,0h-81.4l-30.15-32.77h79.32l32.23,32.77Zm-89.15,0h-81.45l-28.07-32.77h79.37l30.15,32.77Zm-82.95,0h-84.61l-25.99-32.77h82.52l28.07,32.77Zm-86.06,0h-81.82l-23.91-32.77h79.74l25.99,32.77Zm-88.88,0h-81.86l-21.83-32.77h79.78l23.92,32.77Zm-83.23,0h-84.73l-19.76-32.77h82.65l21.84,32.77Zm-86.06,0h-82.17l-17.68-32.77h80.09l19.75,32.77Zm-88.65,0h-82.2l-15.6-32.77h80.13l17.68,32.77Zm-83.47,0h-84.83l-13.52-32.77h82.75l15.6,32.77Zm-86.06,0h-82.44l-11.44-32.77h80.36l13.52,32.77Zm-88.48,0h-82.46l-9.37-32.77h80.38l11.44,32.77Zm-83.65,0h-84.9l-7.28-32.77h82.82l9.36,32.77Zm-86.07,0h-82.61l-5.21-32.77h80.53l7.29,32.77Zm-88.38,0h-82.62l-3.12-32.77h80.54l5.21,32.77Zm-83.76,0h-84.93l-1.05-32.77h82.86l3.13,32.77Zm-86.08,0h-82.65l1.03-32.77h80.58l1.05,32.77Zm-88.36,0h-82.65l3.11-32.77h80.57l-1.03,32.77Zm-83.8,0h-84.92l5.18-32.77h82.85l-3.11,32.77Zm-86.08,0h-82.58l7.27-32.77h80.5l-5.19,32.77Zm-88.42,0h-82.56l9.34-32.77h80.48l-7.26,32.77Zm-83.75,0h-84.88l11.42-32.77h82.8l-9.34,32.77Zm-86.09,0h-82.39l13.5-32.77h80.31l-11.42,32.77Zm-88.56,0h-82.36l15.58-32.77h80.28l-13.5,32.77Zm-83.62,0h-84.8l17.66-32.77h82.72l-15.58,32.77Zm-86.09,0h-82.1l19.74-32.77h80.02l-17.66,32.77Zm-88.76,0h-82.06l21.82-32.77h79.98l-19.74,32.77Zm-83.43,0h-84.69l23.89-32.77h82.61l-21.82,32.77Zm-86.1,0h-81.73l25.97-32.77h79.65l-23.89,32.77Zm-89.01,0h-81.69l28.05-32.77h79.61l-25.97,32.77Zm-83.19,0h-84.55l30.13-32.77h82.47l-28.05,32.77Zm-86.1,0h-81.3l32.21-32.77h79.22l-30.13,32.77Zm-89.3,0h-81.26l34.29-32.77h79.18l-32.21,32.77Zm-82.91,0H50.13l36.37-32.77h82.32l-34.29,32.77Zm-86.1,0H-32.41l38.44-32.77h78.75l-36.37,32.77Zm-6.33,5.71l-36.37,32.78h-83.27l38.44-32.78H42.09Zm-128.43,32.78h-83.22l40.52-32.78H-47.9l-38.44,32.78Zm-1.34,1.14l-38.45,32.78h-85.37l40.53-32.78h83.29Zm49.44,38.48l-36.37,32.78h-87.86l38.44-32.78H-38.24Zm-37.64,33.92l-36.36,32.77h-90.02l38.45-32.77h87.93Zm-42.69,38.48l-36.37,32.78h-92.45l38.45-32.78h90.38Zm1.7,0H-22.93l-34.29,32.78h-96.02l36.37-32.78Zm95.59,0h90.8l-32.21,32.78H-55.57l34.29-32.78Zm98.8,0h90.85l-30.13,32.78H45.31l32.21-32.78Zm92.4,0h94.1l-28.05,32.78h-96.18l30.13-32.78Zm95.6,0h91.23l-25.97,32.78h-93.31l28.05-32.78Zm98.51,0h91.28l-23.9,32.78h-93.36l25.97-32.78Zm92.69,0h94.23l-21.82,32.78h-96.31l23.9-32.78Zm95.6,0h91.61l-19.74,32.78h-93.69l21.82-32.78Zm98.27,0h91.65l-17.66,32.78h-93.72l19.74-32.78Zm92.95,0h94.34l-15.58,32.78h-96.42l17.66-32.78Zm95.6,0h91.9l-13.5,32.78h-93.99l15.58-32.78Zm98.08,0h91.93l-11.42,32.78h-94.02l13.51-32.78Zm93.15,0h94.42l-9.34,32.78h-96.51l11.43-32.78Zm95.61,0h92.11l-7.27,32.78h-94.19l9.35-32.78Zm97.95,0h92.12l-5.19,32.78h-94.2l7.27-32.78Zm93.28,0h94.47l-3.11,32.78h-96.55l5.19-32.78Zm95.62,0h92.2l-1.03,32.78h-94.28l3.11-32.78Zm97.9,0h92.2l1.05,32.78h-94.28l1.03-32.78Zm93.34,0h94.48l3.13,32.78h-96.56l-1.05-32.78Zm95.62,0h92.17l5.21,32.78h-94.24l-3.13-32.78Zm97.94,0h92.15l7.29,32.78h-94.22l-5.21-32.78Zm93.32,0h94.44l9.37,32.78h-96.52l-7.29-32.78Zm95.63,0h92.01l11.44,32.78h-94.09l-9.36-32.78Zm98.05,0h91.99l13.52,32.78h-94.06l-11.45-32.78Zm93.22,0h94.37l15.6,32.78h-96.45l-13.52-32.78Zm95.64,0h91.75l17.68,32.78h-93.83l-15.6-32.78Zm98.23,0h91.71l19.76,32.78h-93.8l-17.68-32.78Zm93.05,0h94.28l21.83,32.78h-96.35l-19.76-32.78Zm95.65,0h91.4l23.92,32.78h-93.48l-21.84-32.78Zm98.47,0h91.36l25.99,32.78h-93.44l-23.92-32.78Zm92.82,0h94.14l28.08,32.78h-96.23l-26-32.78Zm95.65,0h90.99l30.16,32.78h-93.07l-28.08-32.78Zm98.75,0h90.94l32.23,32.78h-93.03l-30.15-32.78Zm92.55,0h94l34.31,32.78h-96.08l-32.23-32.78Zm95.65,0h90.53l36.39,32.78h-92.62l-34.31-32.78Zm99.06,0h90.48l38.47,32.78h-92.56l-36.39-32.78Zm-6.33-5.71l-36.39-32.77h88.04l38.46,32.77h-90.12Zm-37.66-33.91l-36.39-32.78h85.89l38.46,32.78h-87.97Zm-42.72-38.49l-36.39-32.78h83.45l38.46,32.78h-85.53Zm-37.65-33.92l-36.39-32.78h81.3l38.47,32.78h-83.38Zm-42.72-38.48l-36.39-32.77h78.86l38.46,32.77h-80.94Zm-37.65-33.92l-36.39-32.78h76.71l38.47,32.78h-78.79Zm-8.53,0h-78.83l-34.31-32.78h76.76l36.38,32.78Zm-80.48,0h-82.3l-32.23-32.78h80.22l34.31,32.78Zm-83.9,0h-79.25l-30.15-32.78h77.17l32.23,32.78Zm-87,0h-79.3l-28.07-32.78h77.22l30.15,32.78Zm-80.8,0h-82.45l-25.99-32.78h80.37l28.07,32.78Zm-83.9,0h-79.67l-23.92-32.78h77.59l25.99,32.78Zm-86.73,0h-79.71l-21.84-32.78h77.63l23.92,32.78Zm-81.08,0h-82.58l-19.76-32.78h80.5l21.84,32.78Zm-83.91,0h-80.02l-17.68-32.78h77.94l19.75,32.78Zm-86.5,0h-80.05l-15.6-32.78h77.97l17.68,32.78Zm-81.32,0h-82.68l-13.52-32.78h80.6l15.6,32.78Zm-83.91,0h-80.29l-11.45-32.78h78.21l13.52,32.78Zm-86.33,0h-80.31l-9.37-32.78h78.23l11.44,32.78Zm-81.5,0h-82.75l-7.29-32.78h80.67l9.36,32.78Zm-83.92,0h-80.45l-5.21-32.78h78.38l7.29,32.78Zm-86.23,0h-80.46l-3.13-32.78h78.39l5.2,32.78Zm-81.61,0h-82.78l-1.05-32.78h80.7l3.13,32.78Zm-83.93,0h-80.5l1.03-32.78h78.42l1.05,32.78Zm-86.21,0h-80.5l3.11-32.78h78.42l-1.03,32.78Zm-81.65,0h-82.77l5.19-32.78h80.69l-3.11,32.78Zm-83.93,0h-80.43l7.27-32.78h78.35l-5.19,32.78Zm-86.27,0h-80.41l9.35-32.78h78.33l-7.27,32.78Zm-81.6,0h-82.73l11.42-32.78h80.65l-9.35,32.78Zm-83.94,0h-80.24l13.5-32.78h78.16l-11.42,32.78Zm-86.41,0h-80.21l15.58-32.78h78.13l-13.5,32.78Zm-81.47,0h-82.65l17.66-32.78h80.56l-15.58,32.78Zm-83.94,0h-79.95l19.74-32.78h77.87l-17.66,32.78Zm-86.61,0h-79.91l21.82-32.78h77.83l-19.74,32.78Zm-81.29,0h-82.53l23.9-32.78h80.46l-21.82,32.78Zm-83.94,0h-79.58l25.98-32.78h77.5l-23.9,32.78Zm-86.86,0h-79.54l28.05-32.78h77.46l-25.98,32.78Zm-81.04,0h-82.4l30.13-32.78h80.32l-28.05,32.78Zm-83.95,0h-79.15l32.21-32.78h77.07l-30.13,32.78Zm-87.15,0h-79.1l34.29-32.78h77.02l-32.21,32.78Zm-80.76,0h-82.25l36.37-32.78h80.17l-34.29,32.78Zm-83.95,0H7.38l38.45-32.78h76.6l-36.37,32.78Zm-87.47,0h-78.62l40.53-32.78H37.03l-38.45,32.78Zm-1.34,1.14l-38.45,32.77h-80.77l40.52-32.77H-2.76Zm-121.03,32.77h-84.23l42.6-32.77h82.15l-40.52,32.77Zm-7.06,5.71l-40.52,32.78h-86.68l42.6-32.78h84.6Zm-41.93,33.92l-40.53,32.78h-88.82l42.61-32.78h86.75Zm39.96,38.48l-38.45,32.78h-87.81l40.52-32.78h85.73Zm-39.79,33.92l-38.44,32.77h-89.96l40.52-32.77h87.88Zm-45.14,38.48l-38.45,32.78h-92.4l40.53-32.78h90.32Zm-39.79,33.92l-38.44,32.77h-94.55l40.52-32.77h92.47Zm8.8,0h92.53l-36.36,32.77h-94.61l38.45-32.77Zm94.23,0H-58.41l-34.29,32.77h-98.17l36.37-32.77Zm97.75,0H36.19l-32.21,32.77h-95.03l34.29-32.77Zm100.95,0h93l-30.13,32.77H11.98l32.21-32.77Zm94.54,0h96.25l-28.05,32.77h-98.33l30.13-32.77Zm97.75,0h93.39l-25.97,32.77h-95.46l28.05-32.77Zm100.67,0h93.43l-23.9,32.77h-95.51l25.97-32.77Zm94.84,0h96.39l-21.82,32.77h-98.46l23.89-32.77Zm97.76,0h93.76l-19.74,32.77h-95.84l21.82-32.77Zm100.42,0h93.8l-17.66,32.77h-95.87l19.74-32.77Zm95.1,0h96.49l-15.58,32.77h-98.57l17.66-32.77Zm97.75,0h94.06l-13.5,32.77h-96.14l15.58-32.77Zm100.23,0h94.09l-11.42,32.77h-96.17l13.5-32.77Zm95.29,0h96.58l-9.34,32.77h-98.66l11.42-32.77Zm97.76,0h94.26l-7.27,32.77h-96.34l9.34-32.77Zm100.11,0h94.27l-5.19,32.77h-96.35l7.27-32.77Zm95.43,0h96.62l-3.11,32.77h-98.7l5.19-32.77Zm97.77,0h94.35l-1.03,32.77h-96.43l3.11-32.77Zm98.85,38.48h96.79l1.05,32.78h-98.87l1.03-32.78Zm.18-5.71l1.03-32.77h94.35l1.05,32.77h-96.43Zm96.52-32.77h96.63l3.13,32.77h-98.71l-1.05-32.77Zm97.78,0h94.31l5.2,32.77h-96.39l-3.12-32.77Zm100.09,0h94.3l7.28,32.77h-96.38l-5.21-32.77Zm95.47,0h96.6l9.36,32.77h-98.67l-7.29-32.77Zm97.78,0h94.16l11.44,32.77h-96.24l-9.36-32.77Zm100.2,0h94.14l13.52,32.77h-96.21l-11.44-32.77Zm95.37,0h96.52l15.6,32.77h-98.6l-13.52-32.77Zm97.79,0h93.9l17.68,32.77h-95.99l-15.59-32.77Zm100.38,0h93.87l19.76,32.77h-95.95l-17.68-32.77Zm95.2,0h96.42l21.84,32.77h-98.51l-19.75-32.77Zm97.79,0h93.56l23.91,32.77h-95.64l-21.84-32.77Zm100.62,0h93.52l25.99,32.77h-95.59l-23.92-32.77Zm94.97,0h96.3l28.07,32.77h-98.37l-25.99-32.77Zm97.8,0h93.15l30.15,32.77h-95.23l-28.07-32.77Zm100.9,0h93.1l32.23,32.77h-95.17l-30.15-32.77Zm94.7,0h96.15l34.31,32.77h-98.22l-32.23-32.77Zm97.8,0h92.69l36.39,32.77h-94.76l-34.31-32.77Zm101.21,0h92.64l38.46,32.77h-94.71l-36.39-32.77Zm94.4,0h95.98l40.55,32.77h-98.07l-38.46-32.77Zm-1.34-1.14l-38.47-32.78h93.84l40.55,32.78h-95.92Zm-45.16-38.49l-38.47-32.77h91.4l40.54,32.77h-93.47Zm-39.81-33.91l-38.46-32.78h89.24l40.54,32.78h-91.32Zm-45.16-38.49l-38.47-32.78h86.8l40.55,32.78h-88.88Zm-39.81-33.92l-38.46-32.78h84.65l40.54,32.78h-86.73Zm-45.17-38.48l-38.46-32.77h82.21l40.54,32.77h-84.29Zm-39.8-33.92l-38.47-32.78h80.06l40.55,32.78h-82.14Zm-45.16-38.49l-38.47-32.78h77.62l40.55,32.78h-79.7Zm-1.76,0h-76.34l-36.39-32.78h74.27l38.47,32.78Zm-84.87,0h-76.4l-34.31-32.78h74.32l36.39,32.78Zm-78.05,0h-79.86l-32.23-32.78h77.78l34.31,32.78Zm-81.46,0h-76.81l-30.15-32.78h74.73l32.23,32.78Zm-84.56,0h-76.85l-28.08-32.78h74.78l30.15,32.78Zm-78.36,0h-80.01l-26-32.78h77.93l28.07,32.78Zm-81.46,0h-77.23l-23.92-32.78h75.15l26,32.78Zm-84.29,0h-77.27l-21.84-32.78h75.19l23.92,32.78Zm-78.64,0h-80.14l-19.76-32.78h78.06l21.84,32.78Zm-81.47,0h-77.58l-17.68-32.78h75.5l19.76,32.78Zm-84.06,0h-77.61l-15.6-32.78h75.53l17.68,32.78Zm-78.88,0h-80.24l-13.52-32.78h78.16l15.6,32.78Zm-81.47,0h-77.85l-11.44-32.78h75.77l13.52,32.78Zm-83.89,0h-77.87l-9.37-32.78h75.79l11.44,32.78Zm-79.06,0h-80.31l-7.28-32.78h78.23l9.37,32.78Zm-81.48,0h-78.01l-5.21-32.78h75.93l7.29,32.78Zm-83.79,0h-78.03l-3.12-32.78h75.94l5.21,32.78Zm-79.17,0h-80.34l-1.05-32.78h78.27l3.13,32.78Zm-81.49,0h-78.06l1.03-32.78h75.98l1.05,32.78Zm-83.77,0h-78.06l3.11-32.78h75.98l-1.03,32.78Zm-79.21,0h-80.33l5.19-32.78h78.26l-3.11,32.78Zm-81.49,0h-77.99l7.27-32.78h75.91l-5.19,32.78Zm-83.83,0h-77.97l9.35-32.78h75.89l-7.26,32.78Zm-79.16,0h-80.29l11.42-32.78h78.21l-9.35,32.78Zm-81.5,0h-77.8l13.5-32.78h75.72l-11.43,32.78Zm-83.97,0h-77.77l15.58-32.78h75.69l-13.5,32.78Zm-79.04,0h-80.2l17.66-32.78h78.13l-15.58,32.78Zm-81.5,0h-77.51l19.74-32.78h75.43l-17.66,32.78Zm-84.17,0h-77.47l21.82-32.78h75.39l-19.74,32.78Zm-78.84,0h-80.09l23.9-32.78h78.01l-21.82,32.78Zm-81.5,0h-77.14l25.98-32.78h75.06l-23.9,32.78Zm-84.42,0h-77.1l28.05-32.78h75.02l-25.98,32.78Zm-78.6,0h-79.96l30.13-32.78h77.88l-28.05,32.78Zm-81.51,0h-76.71l32.21-32.78h74.63l-30.13,32.78Zm-84.71,0h-76.66l34.29-32.78h74.58l-32.21,32.78Zm-78.31,0h-79.81l36.37-32.78h77.73l-34.29,32.78Zm-81.51,0H52.52l38.45-32.78h74.16l-36.37,32.78Zm-85.03,0H-32.46l40.53-32.78h74.1l-38.45,32.78Zm-78,0h-79.64l42.6-32.78H6.26l-40.53,32.78Zm-7.05,5.71l-40.53,32.78h-82.08l42.6-32.78H-41.33Zm-124.48,32.78h-78.16l44.68-32.78h76.09l-42.6,32.78Zm-1.48,1.14l-42.6,32.77h-80.32l44.68-32.77h78.24Zm-50.02,38.48l-42.6,32.78h-82.76l44.68-32.78h80.68Zm-44.09,33.92l-42.6,32.78h-84.91l44.69-32.78h82.83Zm41.04,38.48l-40.52,32.78h-91.27l42.6-32.78h89.19Zm-41.94,33.92l-40.52,32.77h-93.42l42.6-32.77h91.34Zm-47.58,38.48l-40.53,32.78h-95.86l42.61-32.78h93.78Zm-41.94,33.92l-40.52,32.77h-98.01l42.6-32.77h95.93Zm-45.77,38.48h94.91l-38.44,32.78h-96.99l40.52-32.78Zm103.71,0h94.97l-36.37,32.78h-97.05l38.45-32.78Zm96.67,0h98.54l-34.29,32.78h-100.62l36.37-32.78Zm100.19,0H-1.63l-32.21,32.78h-97.47l34.29-32.78Zm103.39,0h95.44l-30.13,32.78H-25.84l32.21-32.78Zm96.99,0h98.69l-28.05,32.78h-100.77l30.13-32.78Zm100.19,0h95.82l-25.97,32.78h-97.9l28.05-32.78Zm103.1,0h95.87l-23.9,32.78h-97.94l25.97-32.78Zm97.28,0h98.82l-21.82,32.78h-100.9l23.89-32.78Zm100.19,0h96.2l-19.74,32.78h-98.28l21.82-32.78Zm102.86,0h96.24l-17.66,32.78h-98.32l19.74-32.78Zm97.54,0h98.93l-15.58,32.78h-101.01l17.66-32.78Zm100.2,0h96.5l-13.51,32.78h-98.58l15.58-32.78Zm102.67,0h96.53l-11.42,32.78h-98.61l13.5-32.78Zm97.74,0h99.02l-9.34,32.78h-101.1l11.42-32.78Zm100.21,0h96.7l-7.27,32.78h-98.78l9.34-32.78Zm102.55,0h96.71l-5.19,32.78h-98.79l7.26-32.78Zm97.87,0h99.06l-3.11,32.78h-101.14l5.19-32.78Zm100.21,0h96.79l-1.03,32.78h-98.87l3.11-32.78Zm101.43,33.92h98.94l1.05,32.77h-101.02l1.03-32.77Zm100.08,0h101.22l3.13,32.77h-103.3l-1.05-32.77Zm-.04-1.14l-1.05-32.78h99.07l3.13,32.78h-101.15Zm99.17-32.78h96.76l5.21,32.78h-98.83l-3.13-32.78Zm102.53,0h96.74l7.29,32.78h-98.82l-5.21-32.78Zm97.91,0h99.04l9.37,32.78h-101.12l-7.29-32.78Zm100.22,0h96.6l11.44,32.78h-98.68l-9.36-32.78Zm102.64,0h96.58l13.52,32.78h-98.66l-11.44-32.78Zm97.81,0h98.97l15.6,32.78h-101.04l-13.52-32.78Zm100.23,0h96.34l17.68,32.78h-98.42l-15.6-32.78Zm102.83,0h96.31l19.76,32.78h-98.39l-17.68-32.78Zm97.64,0h98.87l21.84,32.78h-100.95l-19.76-32.78Zm100.24,0h96l23.92,32.78h-98.08l-21.83-32.78Zm103.06,0h95.96l25.99,32.78h-98.03l-23.92-32.78Zm97.41,0h98.74l28.07,32.78h-100.82l-25.99-32.78Zm100.24,0h95.59l30.15,32.78h-97.66l-28.07-32.78Zm103.34,0h95.54l32.23,32.78h-97.62l-30.15-32.78Zm97.14,0h98.59l34.31,32.78h-100.67l-32.23-32.78Zm100.24,0h95.13l36.39,32.78h-97.21l-34.31-32.78Zm103.65,0h95.07l38.47,32.78h-97.15l-36.39-32.78Zm96.84,0h98.43l40.54,32.78h-100.5l-38.46-32.78Zm100.24,0h94.63l42.62,32.78h-96.71l-40.54-32.78Zm-7.06-5.71l-40.55-32.77h92.19l42.62,32.77h-94.27Zm-41.96-33.92l-40.55-32.78h90.03l42.63,32.78h-92.12Zm-47.6-38.49l-40.54-32.77h87.6l42.62,32.77h-89.67Zm-41.96-33.91l-40.54-32.78h85.45l42.62,32.78h-87.52Zm-47.6-38.49l-40.55-32.78h83l42.63,32.78h-85.08Zm-41.96-33.92l-40.54-32.78h80.85l42.62,32.78h-82.93Zm-47.61-38.48l-40.54-32.77h78.41l42.62,32.77h-80.49Zm-41.96-33.92l-40.54-32.78h76.26l42.62,32.78h-78.34Zm-47.61-38.49l-40.55-32.78h73.82l42.62,32.78h-75.9Zm-41.96-33.92l-40.54-32.78h71.67l42.62,32.78h-73.75Zm-1.82,0h-77.54l-38.47-32.78h75.47l40.54,32.78Zm-79.31,0h-74.19l-36.39-32.78h72.12l38.46,32.78Zm-82.72,0h-74.25l-34.31-32.78h72.17l36.38,32.78Zm-75.9,0h-77.71l-32.23-32.78h75.63l34.31,32.78Zm-79.31,0h-74.66l-30.15-32.78h72.58l32.23,32.78Zm-82.41,0h-74.71l-28.07-32.78h72.63l30.15,32.78Zm-76.21,0h-77.85l-25.99-32.78h75.77l28.07,32.78Zm-79.31,0h-75.08l-23.92-32.78h73l25.99,32.78Zm-82.14,0h-75.12l-21.83-32.78h73.04l23.91,32.78Zm-76.49,0h-77.99l-19.76-32.78h75.9l21.84,32.78Zm-79.32,0h-75.43l-17.68-32.78h73.35l19.76,32.78Zm-81.91,0h-75.46l-15.6-32.78h73.38l17.68,32.78Zm-76.73,0h-78.08l-13.52-32.78h76.01l15.6,32.78Zm-79.32,0h-75.7l-11.44-32.78h73.62l13.52,32.78Zm-81.74,0h-75.72l-9.36-32.78h73.64l11.45,32.78Zm-76.91,0h-78.16l-7.28-32.78h76.08l9.36,32.78Zm-79.32,0h-75.86l-5.21-32.78h73.78l7.29,32.78Zm-81.64,0h-75.88l-3.13-32.78h73.8l5.21,32.78Zm-77.02,0h-78.19l-1.05-32.78h76.11l3.13,32.78Zm-79.33,0h-75.91l1.03-32.78h73.83l1.05,32.78Zm-81.62,0h-75.91l3.11-32.78h73.83l-1.03,32.78Zm-77.06,0h-78.18l5.19-32.78h76.1l-3.11,32.78Zm-79.34,0h-75.84l7.27-32.78h73.76l-5.19,32.78Zm-81.68,0h-75.82l9.34-32.78h73.74l-7.27,32.78Zm-77.01,0h-78.14l11.42-32.78h76.06l-9.34,32.78Zm-79.35,0h-75.65l13.5-32.78h73.56l-11.42,32.78Zm-81.82,0h-75.62l15.58-32.78h73.54l-13.5,32.78Zm-76.88,0h-78.05l17.66-32.78h75.97l-15.58,32.78Zm-79.35,0h-75.36l19.74-32.78h73.28l-17.66,32.78Zm-82.02,0h-75.32l21.82-32.78h73.24l-19.74,32.78Zm-76.69,0h-77.94l23.9-32.78h75.86l-21.82,32.78Zm-79.35,0h-74.99l25.97-32.78h72.91l-23.89,32.78Zm-82.27,0h-74.95l28.05-32.78h72.86l-25.97,32.78Zm-76.45,0h-77.81l30.13-32.78h75.73l-28.05,32.78Zm-79.36,0h-74.56l32.21-32.78h72.48l-30.13,32.78Zm-82.56,0h-74.51l34.29-32.78h72.43l-32.21,32.78Zm-76.16,0h-77.66l36.37-32.78h75.58l-34.29,32.78Zm-79.36,0h-74.09l38.44-32.78h72.01l-36.37,32.78Zm-82.88,0H9.48l40.52-32.78h71.95l-38.45,32.78Zm-75.84,0h-77.49l42.6-32.78H48.19l-40.52,32.78Zm-79.36,0h-73.58l44.68-32.78H-29.1l-42.6,32.78Zm-1.48,1.14l-42.61,32.78h-75.72l44.68-32.78h73.65Zm-127.98,32.78h-75.67l46.76-32.78h73.59l-44.68,32.78Zm-7.78,5.71l-44.68,32.78h-78.11l46.76-32.78h76.03Zm-46.24,33.92l-44.68,32.77h-80.26l46.76-32.77h78.18Zm-52.46,38.48l-44.68,32.78h-82.7l46.76-32.78h80.62Zm-46.23,33.92l-44.68,32.78h-84.85l46.76-32.78h82.77Zm42.46,38.48l-42.6,32.78h-87.35l44.68-32.78h85.27Zm-44.09,33.92l-42.6,32.77h-89.5l44.68-32.77h87.42Zm-50.02,38.48l-42.6,32.78h-91.94l44.68-32.78h89.86Zm-44.09,33.92l-42.6,32.77h-94.09l44.68-32.77h92.01Zm-146.35,32.77h-94.03l46.76-32.77h91.96l-44.68,32.77Zm-7.78,5.71l-44.68,32.78h-96.48l46.76-32.78h94.4Zm-46.24,33.92l-44.68,32.77h-98.63l46.76-32.77h96.55Zm9.65,0h96.6l-42.6,32.77h-98.69l44.68-32.77Zm98.48,0h100.53l-40.52,32.77h-102.6l42.6-32.77Zm102.34,0h97.06l-38.44,32.77h-99.14l40.52-32.77Zm105.86,0h97.12l-36.37,32.77h-99.2l38.44-32.77Zm98.82,0h100.69l-34.29,32.77h-102.77l36.37-32.77Zm102.34,0H-34.96l-32.21,32.77h-99.62l34.29-32.77Zm105.54,0h97.59l-30.13,32.77H-59.17l32.21-32.77Zm99.14,0h100.84l-28.05,32.77H42.05l30.13-32.77Zm102.34,0h97.97l-25.97,32.77h-100.05l28.05-32.77Zm105.26,0h98.02l-23.9,32.77h-100.1l25.97-32.77Zm99.43,0h100.98l-21.81,32.77h-103.05l23.89-32.77Zm102.35,0h98.35l-19.74,32.77h-100.43l21.82-32.77Zm105.01,0h98.39l-17.66,32.77h-100.46l19.74-32.77Zm99.69,0h101.08l-15.58,32.77h-103.17l17.66-32.77Zm102.35,0h98.65l-13.5,32.77h-100.73l15.58-32.77Zm104.82,0h98.68l-11.43,32.77h-100.75l13.5-32.77Zm99.89,0h101.17l-9.35,32.77h-103.25l11.43-32.77Zm102.35,0h98.85l-7.27,32.77h-100.93l9.34-32.77Zm104.7,0h98.86l-5.19,32.77h-100.94l7.27-32.77Zm100.02,0h101.21l-3.11,32.77h-103.29l5.19-32.77Zm102.36,0h98.94l-1.03,32.77h-101.02l3.11-32.77Zm103.44,38.48h101.38l1.05,32.78h-103.46l1.03-32.78Zm102.52,0h103.66l3.13,32.78h-105.74l-1.05-32.78Zm104.81,0h101.34l5.21,32.78h-103.43l-3.13-32.78Zm-.55-5.71l-3.12-32.77h98.9l5.21,32.77h-100.99Zm101.56-32.77h98.89l7.29,32.77h-100.97l-5.21-32.77Zm100.06,0h101.18l9.37,32.77h-103.27l-7.29-32.77Zm102.37,0h98.75l11.44,32.77h-100.83l-9.37-32.77Zm104.79,0h98.73l13.52,32.77h-100.81l-11.44-32.77Zm99.96,0h101.12l15.6,32.77h-103.2l-13.52-32.77Zm102.38,0h98.49l17.68,32.77h-100.57l-15.6-32.77Zm104.98,0h98.46l19.76,32.77h-100.54l-17.68-32.77Zm99.79,0h101.02l21.84,32.77h-103.1l-19.76-32.77Zm102.39,0h98.15l23.92,32.77h-100.23l-21.84-32.77Zm105.21,0h98.11l25.99,32.77h-100.19l-23.91-32.77Zm99.56,0h100.89l28.07,32.77h-102.97l-25.99-32.77Zm102.39,0h97.74l30.14,32.77h-99.81l-28.07-32.77Zm105.49,0h97.69l32.23,32.77h-99.77l-30.15-32.77Zm99.29,0h100.74l34.3,32.77h-102.81l-32.23-32.77Zm102.39,0h97.28l36.38,32.77h-99.35l-34.31-32.77Zm105.8,0h97.23l38.47,32.77h-99.31l-36.39-32.77Zm98.98,0h100.58l40.54,32.77h-102.66l-38.47-32.77Zm102.4,0h96.78l42.62,32.77h-98.86l-40.54-32.77Zm106.14,0h96.72l44.7,32.77h-98.8l-42.62-32.77Zm-1.49-1.14l-42.62-32.78h94.57l44.7,32.78h-96.65Zm-50.04-38.49l-42.62-32.77h92.13l44.7,32.77h-94.21Zm-44.11-33.92l-42.62-32.78h89.98l44.7,32.78h-92.05Zm-50.04-38.49l-42.62-32.77h87.54l44.7,32.77h-89.62Zm-44.11-33.91l-42.62-32.78h85.38l44.7,32.78h-87.46Zm-50.05-38.49l-42.62-32.78h82.94l44.7,32.78h-85.02Zm-44.11-33.92l-42.62-32.78h80.79l44.7,32.78h-82.87Zm-50.04-38.48l-42.62-32.77h78.35l44.7,32.77h-80.43Zm-44.11-33.92l-42.62-32.78h76.2l44.7,32.78h-78.28Zm-50.04-38.49l-42.63-32.78h73.76l44.7,32.78h-75.84Zm-44.11-33.92l-42.62-32.78h71.61l44.7,32.78h-73.69Zm-50.04-38.48l-42.63-32.78h69.17l44.71,32.78h-71.25Zm-9.37,0h-71.3l-40.55-32.78h69.22l42.63,32.78Zm-73.12,0h-75.11l-38.47-32.78h73.03l40.55,32.78Zm-76.87,0h-71.75l-36.39-32.78h69.67l38.47,32.78Zm-80.28,0h-71.81l-34.31-32.78h69.73l36.39,32.78Zm-73.46,0h-75.27l-32.23-32.78h73.19l34.31,32.78Zm-76.87,0h-72.22l-30.16-32.78h70.14l32.23,32.78Zm-79.97,0h-72.26l-28.08-32.78h70.19l30.15,32.78Zm-73.77,0h-75.42l-26-32.78h73.34l28.08,32.78Zm-76.87,0h-72.64l-23.92-32.78h70.56l26,32.78Zm-79.7,0h-72.68l-21.84-32.78h70.59l23.92,32.78Zm-74.04,0h-75.55l-19.76-32.78h73.47l21.84,32.78Zm-76.88,0h-72.98l-17.68-32.78h70.91l19.76,32.78Zm-79.47,0h-73.02l-15.6-32.78h70.94l17.68,32.78Zm-74.29,0h-75.65l-13.52-32.78h73.57l15.6,32.78Zm-76.88,0h-73.26l-11.44-32.78h71.18l13.52,32.78Zm-79.3,0h-73.28l-9.36-32.78h71.19l11.45,32.78Zm-74.47,0h-75.71l-7.29-32.78h73.63l9.36,32.78Zm-76.88,0h-73.42l-5.21-32.78h71.34l7.29,32.78Zm-79.2,0h-73.43l-3.13-32.78h71.35l5.21,32.78Zm-74.58,0h-75.75l-1.05-32.78h73.67l3.13,32.78Zm-76.9,0h-73.46l1.03-32.78h71.39l1.05,32.78Zm-79.17,0h-73.47l3.11-32.78h71.39l-1.03,32.78Zm-74.62,0h-75.74l5.18-32.78h73.67l-3.11,32.78Zm-76.9,0h-73.39l7.27-32.78h71.32l-5.19,32.78Zm-79.24,0h-73.38l9.34-32.78h71.3l-7.27,32.78Zm-74.57,0h-75.7l11.42-32.78h73.62l-9.35,32.78Zm-76.91,0h-73.2l13.5-32.78h71.12l-11.42,32.78Zm-79.38,0h-73.18l15.58-32.78h71.1l-13.5,32.78Zm-74.44,0h-75.61l17.66-32.78h73.53l-15.58,32.78Zm-76.91,0h-72.92l19.74-32.78h70.84l-17.66,32.78Zm-79.57,0h-72.88l21.82-32.78h70.8l-19.74,32.78Zm-74.25,0h-75.5l23.9-32.78h73.42l-21.82,32.78Zm-76.92,0h-72.54l25.98-32.78h70.47l-23.9,32.78Zm-79.83,0h-72.5l28.06-32.78h70.42l-25.98,32.78Zm-74,0h-75.37l30.14-32.78h73.29l-28.06,32.78Zm-76.92,0h-72.11l32.21-32.78h70.04l-30.13,32.78Zm-80.12,0h-72.07l34.29-32.78h69.99l-32.21,32.78Zm-73.72,0h-75.21l36.37-32.78h73.14l-34.29,32.78Zm-76.92,0h-71.65l38.45-32.78h69.57l-36.37,32.78Zm-80.44,0H57.06l40.53-32.78h69.51l-38.45,32.78Zm-73.4,0H-19.81l42.61-32.78h72.97l-40.53,32.78Zm-76.92,0h-71.13l44.69-32.78H20.93l-42.61,32.78Zm-80.79,0h-71.07l46.77-32.78H-57.78l-44.69,32.78Zm-7.78,5.7l-44.68,32.78h-73.52l46.76-32.78h71.44Zm-120.18,32.78h-77.32l48.84-32.78h75.24l-46.76,32.78Zm-1.63,1.14l-46.76,32.78h-79.47l48.84-32.78h77.39Zm-54.9,38.49l-46.76,32.78h-81.91l48.84-32.78h79.83Zm-48.4,33.92l-46.76,32.77h-84.06l48.84-32.77h81.98Zm-54.9,38.48l-46.76,32.78h-86.5l48.84-32.78h84.42Zm-48.39,33.92l-46.76,32.78h-88.65l48.84-32.78h86.57Zm32.3,38.48l-44.68,32.78h-87.29l46.76-32.78h85.21Zm-46.24,33.92l-44.68,32.77h-89.44l46.76-32.77h87.36Zm-52.46,38.48l-44.68,32.78h-91.89l46.76-32.78h89.81Zm-138.56,32.78h-95.68l48.84-32.78h93.6l-46.76,32.78Zm-1.63,1.14l-46.76,32.77h-97.83l48.84-32.77h95.76Zm-54.9,38.48l-46.76,32.78h-100.27l48.84-32.78h98.19Zm-48.39,33.92l-46.76,32.77h-102.43l48.84-32.77h100.34Zm-54.9,38.48l-46.76,32.78h-104.86l48.84-32.78h102.79Zm1.99,0h98.99l-44.68,32.78h-101.07l46.76-32.78Zm108.64,0h99.05l-42.6,32.78h-101.13l44.68-32.78Zm100.92,0h102.96l-40.52,32.78h-105.04l42.6-32.78Zm104.78,0h99.5l-38.44,32.78h-101.58l40.52-32.78Zm108.3,0h99.56l-36.37,32.78h-101.64l38.44-32.78Zm101.26,0h103.13l-34.29,32.78h-105.21l36.37-32.78Zm104.78,0h99.98l-32.21,32.78h-102.06l34.29-32.78Zm107.99,0H35.25l-30.13,32.78h-102.11l32.21-32.78Zm101.58,0h103.29l-28.05,32.78H6.67l30.13-32.78Zm104.79,0h100.41l-25.97,32.78h-102.49l28.05-32.78Zm107.7,0h100.46l-23.89,32.78h-102.54l25.97-32.78Zm101.87,0h103.42l-21.82,32.78h-105.49l23.89-32.78Zm104.79,0h100.79l-19.74,32.78h-102.87l21.82-32.78Zm107.45,0h100.83l-17.66,32.78h-102.91l19.74-32.78Zm102.13,0h103.52l-15.58,32.78h-105.6l17.66-32.78Zm104.79,0h101.09l-13.5,32.78h-103.17l15.58-32.78Zm107.26,0h101.12l-11.42,32.78h-103.2l13.5-32.78Zm102.33,0h103.61l-9.35,32.78h-105.69l11.42-32.78Zm104.8,0h101.3l-7.27,32.78h-103.37l9.34-32.78Zm107.14,0h101.31l-5.19,32.78h-103.38l7.26-32.78Zm102.46,0h103.65l-3.11,32.78h-105.73l5.19-32.78Zm104.8,0h101.38l-1.03,32.78h-103.46l3.11-32.78Zm100.32,33.92l-1.03,32.77h-105.61l3.11-32.77h103.53Zm5.71,0h103.53l1.05,32.77h-105.61l1.03-32.77Zm104.67,0h105.82l3.13,32.77h-107.89l-1.05-32.77Zm106.96,0h103.5l5.21,32.77h-105.58l-3.12-32.77Zm109.27,0h103.48l7.29,32.77h-105.56l-5.21-32.77Zm-.18-1.14l-5.21-32.78h101.33l7.29,32.78h-103.41Zm97.29-32.78h103.63l9.36,32.78h-105.71l-7.29-32.78Zm104.82,0h101.19l11.44,32.78h-103.27l-9.36-32.78Zm107.23,0h101.17l13.52,32.78h-103.25l-11.44-32.78Zm102.41,0h103.56l15.6,32.78h-105.64l-13.52-32.78Zm104.82,0h100.93l17.67,32.78h-103.01l-15.6-32.78Zm107.42,0h100.9l19.76,32.78h-102.98l-17.68-32.78Zm102.23,0h103.46l21.84,32.78h-105.54l-19.76-32.78Zm104.83,0h100.59l23.91,32.78h-102.67l-21.83-32.78Zm107.65,0h100.55l25.99,32.78h-102.63l-23.91-32.78Zm102,0h103.33l28.07,32.78h-105.41l-26-32.78Zm104.83,0h100.17l30.15,32.78h-102.26l-28.07-32.78Zm107.93,0h100.13l32.23,32.78h-102.21l-30.15-32.78Zm101.73,0h103.18l34.31,32.78h-105.26l-32.23-32.78Zm104.83,0h99.72l36.39,32.78h-101.8l-34.31-32.78Zm108.25,0h99.67l38.46,32.78h-101.75l-36.38-32.78Zm101.43,0h103.02l40.54,32.78h-105.1l-38.46-32.78Zm104.83,0h99.22l42.62,32.78h-101.29l-40.55-32.78Zm108.58,0h99.16l44.7,32.78h-101.24l-42.62-32.78Zm93.31-5.71l-44.7-32.77h100.4l46.78,32.77h-102.48Zm-98.75-72.4l-44.7-32.77h95.81l46.78,32.77h-97.89Zm-98.74-72.4l-44.7-32.77h91.22l46.78,32.77h-93.3Zm-46.26-33.91l-44.7-32.78h89.07l46.78,32.78h-91.15Zm-52.48-38.49l-44.71-32.78h86.63l46.79,32.78h-88.71Zm-98.75-72.4l-44.7-32.77h82.04l46.78,32.77h-84.12Zm-98.74-72.4l-44.71-32.78h77.45l46.78,32.78h-79.53Zm-46.26-33.92l-44.7-32.78h75.29l46.78,32.78h-77.37Zm32.58-32.78h71.13l48.86,32.78h-73.22l-46.78-32.78Zm-10.13-5.7h-74.93l-44.71-32.78h72.86l46.79,32.78Zm-121.2-33.93l-44.7-32.77h70.71l46.78,32.77h-72.78Zm-1.93,0h-69.1l-42.62-32.77h67.01l44.7,32.77Zm-78.46,0h-69.15l-40.54-32.77h67.08l42.62,32.77Zm-70.97,0h-72.96l-38.46-32.77h70.88l40.54,32.77Zm-74.71,0h-69.6l-36.39-32.77h67.53l38.47,32.77Zm-78.13,0h-69.66l-34.31-32.77h67.58l36.39,32.77Zm-71.31,0h-73.12l-32.23-32.77h71.04l34.31,32.77Zm-74.72,0h-70.07l-30.15-32.77h67.99l32.23,32.77Zm-77.82,0h-70.11l-28.07-32.77h68.03l30.15,32.77Zm-71.61,0h-73.27l-25.99-32.77h71.18l28.08,32.77Zm-74.72,0h-70.48l-23.92-32.77h68.41l25.99,32.77Zm-77.55,0h-70.53l-21.83-32.77h68.45l23.92,32.77Zm-71.9,0h-73.39l-19.76-32.77h71.32l21.84,32.77Zm-74.73,0h-70.83l-17.68-32.77h68.76l19.75,32.77Zm-77.31,0h-70.87l-15.6-32.77h68.79l17.68,32.77Zm-72.13,0h-73.5l-13.52-32.77h71.42l15.6,32.77Zm-74.73,0h-71.11l-11.44-32.77h69.03l13.52,32.77Zm-77.15,0h-71.12l-9.37-32.77h69.05l11.44,32.77Zm-72.31,0h-73.56l-7.29-32.77h71.48l9.36,32.77Zm-74.73,0h-71.27l-5.21-32.77h69.19l7.29,32.77Zm-77.05,0h-71.28l-3.13-32.77h69.2l5.21,32.77Zm-72.42,0h-73.6l-1.05-32.77h71.52l3.13,32.77Zm-74.75,0h-71.32l1.03-32.77h69.24l1.05,32.77Zm-77.03,0h-71.32l3.11-32.77h69.24l-1.03,32.77Zm-72.46,0h-73.59l5.19-32.77h71.51l-3.11,32.77Zm-74.75,0h-71.24l7.27-32.77h69.16l-5.19,32.77Zm-77.09,0h-71.23l9.35-32.77h69.15l-7.26,32.77Zm-72.42,0h-73.55l11.42-32.77h71.47l-9.35,32.77Zm-74.76,0h-71.05l13.5-32.77h68.97l-11.42,32.77Zm-77.22,0h-71.03l15.58-32.77h68.95l-13.5,32.77Zm-72.29,0h-73.46l17.66-32.77h71.38l-15.58,32.77Zm-74.76,0h-70.77l19.74-32.77h68.69l-17.66,32.77Zm-77.42,0h-70.73l21.82-32.77h68.65l-19.74,32.77Zm-72.1,0h-73.35l23.89-32.77h71.27l-21.82,32.77Zm-74.76,0h-70.39l25.97-32.77h68.32l-23.9,32.77Zm-77.67,0h-70.35l28.05-32.77h68.27l-25.97,32.77Zm-71.86,0h-73.21l30.13-32.77h71.14l-28.05,32.77Zm-74.77,0h-69.97l32.21-32.77h67.88l-30.13,32.77Zm-77.97,0h-69.92l34.29-32.77h67.84l-32.21,32.77Zm-71.57,0h-73.06l36.37-32.77h70.99l-34.29,32.77Zm-74.77,0h-69.5l38.45-32.77h67.42l-36.37,32.77Zm-78.29,0h-69.44l40.52-32.77h67.36l-38.44,32.77Zm-71.25,0H24.28l42.6-32.77h70.82l-40.52,32.77Zm-74.77,0H-46.57l44.68-32.77h66.9l-42.6,32.77Zm-78.64,0h-68.92l46.76-32.77H-11.54l-44.68,32.77Zm-70.91,0h-72.72l48.84-32.77h70.65l-46.76,32.77Zm-1.63,1.14l-46.77,32.78h-74.88l48.85-32.78h72.8Zm-123.69,32.78h-70.6l50.92-32.78h68.52l-48.84,32.78Zm-8.5,5.7l-48.84,32.78h-73.05l50.92-32.78h70.97Zm-50.54,33.92l-48.84,32.78h-75.19l50.92-32.78h73.12Zm-57.34,38.49l-48.84,32.78h-77.64l50.92-32.78h75.56Zm-50.55,33.92l-48.84,32.77h-79.79l50.92-32.77h77.71Zm-57.34,38.48l-48.84,32.78h-82.23l50.92-32.78h80.15Zm-50.54,33.92l-48.84,32.78h-84.38l50.92-32.78h82.3Zm33.71,38.48l-46.76,32.78h-91.09l48.84-32.78h89.01Zm-48.39,33.92l-46.76,32.77h-93.24l48.84-32.77h91.17Zm-142.05,32.77h-88.97l50.92-32.77h86.89l-48.84,32.77Zm-8.5,5.71l-48.84,32.78h-91.41l50.92-32.78h89.33Zm-50.54,33.92l-48.84,32.77h-93.56l50.92-32.77h91.48Zm-57.35,38.48l-48.84,32.78h-96l50.92-32.78h93.92Zm-50.54,33.92l-48.84,32.77h-98.15l50.92-32.77h96.07Zm-57.35,38.48l-48.84,32.78h-100.59l50.92-32.78h98.51Zm-50.54,33.92l-48.84,32.77h-102.74l50.92-32.77h100.66Zm108.98,0h101.14l-44.68,32.77h-103.22l46.76-32.77Zm110.79,0h101.2l-42.6,32.77h-103.28l44.68-32.77Zm210,0h101.65l-38.45,32.77h-103.73l40.52-32.77Zm110.45,0h101.71l-36.36,32.77h-103.79l38.45-32.77Zm210.35,0h102.13l-32.21,32.77h-104.21l34.29-32.77Zm110.14,0H4.07l-30.13,32.77h-104.26l32.21-32.77Zm210.67,0h102.57l-25.97,32.77h-104.65l28.05-32.77Zm109.85,0h102.61l-23.9,32.77h-104.69l25.97-32.77Zm210.96,0h102.95l-19.74,32.77h-105.02l21.82-32.77Zm109.6,0h102.98l-17.66,32.77h-105.06l19.74-32.77Zm211.22,0h103.24l-13.5,32.77h-105.32l15.58-32.77Zm109.41,0h103.27l-11.42,32.77h-105.35l13.5-32.77Zm211.43,0h103.45l-7.27,32.77h-105.52l9.34-32.77Zm109.29,0h103.45l-5.19,32.77h-105.53l7.27-32.77Zm104.61,0h105.8l-3.11,32.77h-107.88l5.19-32.77Zm102.16,38.48l-3.11,32.78h-110.32l5.18-32.78h108.25Zm1.15,0h105.97l-1.03,32.78h-108.05l3.11-32.78Zm111.68,0h105.97l1.05,32.78h-108.05l1.03-32.78Zm107.12,0h108.25l3.13,32.78h-110.33l-1.05-32.78Zm109.4,0h105.94l5.21,32.78h-108.02l-3.13-32.78Zm111.72,0h105.92l7.29,32.78h-108l-5.21-32.78Zm107.09,0h108.22l9.37,32.78h-110.3l-7.29-32.78Zm-1.27-5.71l-7.29-32.77h105.78l9.37,32.77h-107.86Zm99.68-32.77h103.34l11.44,32.77h-105.42l-9.36-32.77Zm109.38,0h103.32l13.52,32.77h-105.4l-11.44-32.77Zm211.53,0h103.09l17.68,32.77h-105.16l-15.6-32.77Zm109.57,0h103.05l19.76,32.77h-105.13l-17.68-32.77Zm211.36,0h102.74l23.91,32.77h-104.82l-21.83-32.77Zm109.8,0h102.7l26,32.77h-104.78l-23.91-32.77Zm211.14,0h102.32l30.15,32.77h-104.41l-28.07-32.77Zm110.08,0h102.28l32.23,32.77h-104.36l-30.15-32.77Zm210.86,0h101.87l36.39,32.77h-103.95l-34.31-32.77Zm110.4,0h101.81l38.46,32.77h-103.89l-36.38-32.77Zm210.56,0h101.37l42.62,32.77h-103.45l-40.54-32.77Zm110.73,0h101.31l44.7,32.77h-103.39l-42.62-32.77Zm210.23,0h100.84l48.85,32.77h-102.92l-46.77-32.77Zm-56.56-39.63l-46.79-32.77h96.26l48.86,32.77h-98.33Zm-103.34-72.4l-46.78-32.77h91.66l48.86,32.77h-93.74Zm-103.34-72.4l-46.78-32.77h87.07l48.86,32.77h-89.15Zm38.59-33.91h-87l-46.78-32.78h84.92l48.86,32.78Zm-141.92-38.49l-46.78-32.78h82.48l48.86,32.78h-84.55Zm-103.34-72.4l-46.78-32.77h77.88l48.86,32.77h-79.97Zm-103.33-72.4l-46.78-32.78h73.29l48.86,32.78h-75.37Zm-83.12-106.32h-68.63l-46.78-32.77h66.55l48.86,32.77Zm-3526.39-32.77h66.37l-48.84,32.77h-68.45l50.92-32.77Zm-449.91,289.61h84.74l-48.84,32.78h-86.81l50.92-32.78Zm-449.9,289.6h103.1l-48.84,32.78h-105.18l50.92-32.78Zm167.76,32.78l46.76-32.78h103.58l-42.32,31.04,1.27,1.73h-109.29Zm159.99-32.78h103.64l-42.6,32.78h-105.72l44.68-32.78Zm174.36,32.78l40.53-32.78h104.09l-36.57,31.18,1.36,1.6h-109.41Zm153.41-32.78h104.15l-36.37,32.78h-106.23l38.45-32.78Zm180.94,32.78l34.29-32.78h104.57l-30.81,31.35,1.46,1.43h-109.51Zm146.87-32.78H-31.31l-30.13,32.78h-106.7l32.21-32.78Zm187.49,32.78l28.05-32.78h105.01l-25.02,31.58,1.52,1.2H51.57Zm140.34-32.78h105.05l-23.9,32.78h-107.13l25.97-32.78Zm194.02,32.78l21.82-32.78h105.39l-19.2,31.88,1.5.9h-109.5Zm133.86-32.78h105.42l-17.66,32.78h-107.5l19.74-32.78Zm200.52,32.78l15.58-32.78h105.68l-13.29,32.26,1.26.52h-109.23Zm127.43-32.78h105.71l-11.42,32.78h-107.79l13.5-32.78Zm206.96,32.78l9.35-32.78h105.88l-7.26,32.73.21.05h-108.18Zm121.07-32.78h105.9l-5.19,32.78h-107.97l7.27-32.78Zm882.23,32.78l-9.37-32.78h105.78l11.44,32.78h-107.86Zm102.46-32.78h105.76l13.52,32.78h-109.03l1.06-.37-11.31-32.41Zm232.01,32.78l-15.6-32.78h105.53l17.68,32.78h-107.6Zm96.41-32.78h105.49l19.76,32.78h-109.45l1.45-.79-17.26-31.99Zm238.08,32.78l-21.84-32.78h105.18l23.92,32.78h-107.26Zm90.41-32.78h105.14l25.99,32.78h-109.55l1.52-1.11-23.11-31.66Zm244.09,32.78l-28.08-32.78h104.77l30.15,32.78h-106.85Zm84.45-32.78h104.72l32.23,32.78h-109.53l1.48-1.36-28.9-31.42Zm250.05,32.78l-34.31-32.78h104.31l36.39,32.78h-106.39Zm78.53-32.78h104.26l38.47,32.78h-109.46l1.4-1.55-34.67-31.23Zm255.99,32.78l-40.55-32.78h103.81l42.62,32.78h-105.88Zm72.63-32.78h103.75l44.7,32.78h-109.33l1.3-1.69-40.43-31.08Zm261.89,32.78l-46.78-32.78h103.28l48.86,32.78h-105.36Z" style="fill:#6f097a"/></g><g style="mask:url(#mask-1)"><path d="m-1177.91,4.78l54.37,36.48v.21h.31l107.66,72.23v.17h.26l107.72,72.26v.14h.21l107.77,72.29v.11h.16l107.21,71.92.61.41v.07h.11l107.87,72.36v.04h.06l107.92,72.39h0s.01,0,.01,0l215.14,144.32.81-1.2v1.68h3480.02v-2.86l1.55,2.4,449.9-289.6L4177.9,4.81l-1.54-2.4v-.57h-.37l-1.17-1.83-2.84,1.83h-330.58l-1.27-1.73-2.36,1.73h-330.98l-1.36-1.6-1.88,1.6h-331.4l-1.46-1.43-1.4,1.43h-331.82l-1.52-1.2-.95,1.2h-332.3l-1.49-.9-.54.9h-332.95l-1.25-.51-.21.51h-334.27l-.21-.05v.05h-998.01l-.13-.37-1.05.37h-333.25l-.42-.78-1.45.78H164.96l-.81-1.11-1.52,1.11H-169.34l-1.25-1.36-1.48,1.36h-331.54l-1.72-1.55-1.39,1.55h-331.12l-2.2-1.69-1.3,1.69h-330.72l-2.68-1.8-1.21,1.8h-1.59v1.14h.82l-1.21,1.8Zm276.91,36.68l44.7,32.78h-104.99l-46.78-32.78h107.08Zm-115.22-5.71l-46.78-32.78h109.51l44.71,32.78h-107.44Zm442.42,5.71l38.46,32.78h-105.17l-40.54-32.78h107.25Zm-114.31-5.71l-40.55-32.78h109.69l38.47,32.78h-107.61Zm441.5,5.71l32.23,32.78h-105.33l-34.31-32.78h107.41Zm-113.38-5.71L-394.3,2.98h109.85l32.23,32.78h-107.77Zm440.57,5.71l26,32.78H1.09l-28.07-32.78h107.56Zm-112.44-5.71L-59.94,2.98H50.06l25.99,32.78H-31.87Zm439.62,5.71l19.76,32.78h-105.61l-21.84-32.78h107.69Zm-111.49-5.71l-21.84-32.78h110.13l19.76,32.78h-108.05Zm438.65,5.71l13.52,32.78h-105.71l-15.6-32.78h107.79Zm-110.5-5.71l-15.6-32.78h110.23l13.52,32.78h-108.15Zm1418.96,5.71l-11.42,32.78h-105.76l9.34-32.78h107.84Zm-106.21-5.71l9.34-32.78h110.28l-11.42,32.78h-108.2Zm433.28,5.71l-17.66,32.78h-105.67l15.58-32.78h107.76Zm-105.04-5.71l15.58-32.78h110.19l-17.66,32.78h-108.11Zm432.1,5.71l-23.9,32.78h-105.57l21.82-32.78h107.65Zm-103.85-5.71l21.82-32.78h110.09l-23.9,32.78h-108.01Zm430.9,5.71l-30.13,32.78h-105.44l28.05-32.78h107.52Zm-102.63-5.71l28.05-32.78h109.96l-30.13,32.78h-107.88Zm429.66,5.71l-36.37,32.78h-105.28l34.29-32.78h107.36Zm-101.39-5.71l34.29-32.78h109.8l-36.37,32.78h-107.72Zm428.42,5.71l-42.6,32.78h-105.12l40.52-32.78h107.19Zm-100.14-5.71l40.53-32.78h109.64l-42.61,32.78h-107.56Zm427.16,5.71l-48.84,32.78h-104.94l46.76-32.78h107.02Zm-98.88-5.71l46.76-32.78h109.46l-48.84,32.78h-107.38ZM-357.49,548.27h70.78l46.79,32.78h-68.7l-48.87-32.78Zm-85.49-110.88h81.97l44.7,32.78h-79.89l-46.78-32.78Zm44.79,32.78h-75.73l-48.86-32.78h77.81l46.78,32.78Zm-148.13-105.18h86.56l44.7,32.78h-84.48l-46.78-32.78Zm44.79,32.78h-80.32l-48.86-32.78h82.41l46.78,32.78Zm-251.46-177.58h95.74l44.7,32.78h-93.66l-46.78-32.78Zm44.79,32.78h-89.51l-48.86-32.78h91.59l46.78,32.78Zm-148.13-105.18h100.33l44.7,32.78h-98.25l-46.78-32.78Zm44.79,32.78h-94.1l-48.86-32.78h96.18l46.78,32.78Zm-148.13-105.18h104.92l44.7,32.78h-102.84l-46.78-32.78Zm44.79,32.78h-98.69l-48.86-32.78h100.77l46.78,32.78Zm4412.67,72.4h-98.37l40.52-32.78h100.45l-42.6,32.78Zm44.47-32.78h96.53l-44.68,32.78h-94.45l42.6-32.78ZM125.76,331.07l30.15,32.78h-83.91l-32.23-32.78h85.99Zm7.75,0h86.04l28.07,32.78h-83.96l-30.15-32.78Zm87.54,0h89.2l25.99,32.78h-87.11l-28.08-32.78Zm90.65,0h86.41l23.92,32.78h-84.33l-25.99-32.78Zm93.47,0h86.45l21.84,32.78h-84.37l-23.92-32.78Zm87.82,0h89.32l19.76,32.78h-87.24l-21.84-32.78Zm90.65,0h86.76l17.68,32.78h-84.68l-19.76-32.78Zm93.25,0h86.8l15.6,32.78h-84.72l-17.68-32.78Zm88.06,0h89.42l13.52,32.78h-87.34l-15.6-32.78Zm90.66,0h87.03l11.45,32.78h-84.95l-13.52-32.78Zm93.07,0h87.05l9.37,32.78h-84.97l-11.45-32.78Zm88.24,0h89.49l7.29,32.78h-87.41l-9.36-32.78Zm90.66,0h87.2l5.21,32.78h-85.12l-7.28-32.78Zm92.97,0h87.21l3.12,32.78h-85.13l-5.21-32.78Zm88.36,0h89.52l1.05,32.78h-87.45l-3.13-32.78Zm90.67,0h87.24l-1.03,32.78h-85.16l-1.05-32.78Zm92.95,0h87.24l-3.11,32.78h-85.16l1.03-32.78Zm88.39,0h89.52l-5.19,32.78h-87.44l3.11-32.78Zm90.67,0h87.17l-7.27,32.78h-85.09l5.19-32.78Zm93.01,0h87.16l-9.35,32.78h-85.08l7.27-32.78Zm88.34,0h89.47l-11.42,32.78h-87.39l9.34-32.78Zm90.68,0h86.98l-13.5,32.78h-84.9l11.43-32.78Zm93.15,0h86.95l-15.58,32.78h-84.88l13.5-32.78Zm88.21,0h89.39l-17.66,32.78h-87.31l15.58-32.78Zm90.69,0h86.69l-19.74,32.78h-84.61l17.66-32.78Zm93.35,0h86.66l-21.82,32.78h-84.58l19.74-32.78Zm88.03,0h89.28l-23.9,32.78h-87.2l21.82-32.78Zm90.69,0h86.32l-25.97,32.78h-84.25l23.9-32.78Zm93.6,0h86.28l-28.05,32.78h-84.2l25.98-32.78Zm87.78,0h89.15l-30.13,32.78h-87.07l28.06-32.78Zm90.7,0h85.89l-32.21,32.78h-83.81l30.13-32.78Zm93.89,0h85.85l-34.29,32.78h-83.77l32.21-32.78Zm5.61-5.71l32.21-32.78h88.29l-34.29,32.78h-86.21Zm-8,0h-86.25l30.13-32.78h88.33l-32.21,32.78Zm-87.8,0h-89.51l28.05-32.78h91.59l-30.13,32.78Zm-91.01,0h-86.64l25.97-32.78h88.72l-28.05,32.78Zm-93.92,0h-86.69l23.9-32.78h88.76l-25.97,32.78Zm-88.1,0h-89.64l21.81-32.78h91.72l-23.9,32.78Zm-91.01,0h-87.02l19.74-32.78h89.09l-21.82,32.78Zm-93.68,0h-87.05l17.66-32.78h89.13l-19.74,32.78Zm-88.35,0h-89.75l15.58-32.78h91.83l-17.66,32.78Zm-91.02,0h-87.31l13.5-32.78h89.39l-15.58,32.78Zm-93.49,0h-87.34l11.42-32.78h89.42l-13.5,32.78Zm-88.55,0h-89.83l9.34-32.78h91.91l-11.42,32.78Zm-91.02,0h-87.52l7.27-32.78h89.6l-9.35,32.78Zm-93.36,0h-87.53l5.19-32.78h89.61l-7.26,32.78Zm-88.69,0h-89.88l3.11-32.78h91.96l-5.19,32.78Zm-91.03,0h-87.6l1.03-32.78h89.68l-3.11,32.78Zm-93.31,0h-87.6l-1.05-32.78h89.68l-1.03,32.78Zm-88.75,0h-89.89l-3.13-32.78h91.96l1.05,32.78Zm-91.03,0h-87.57l-5.21-32.78h89.65l3.13,32.78Zm-93.35,0h-87.56l-7.29-32.78h89.64l5.2,32.78Zm-88.73,0h-89.86l-9.36-32.78h91.94l7.28,32.78Zm-91.04,0h-87.42l-11.44-32.78h89.49l9.37,32.78Zm-93.46,0h-87.4l-13.52-32.78h89.47l11.44,32.78Zm-88.63,0h-89.78l-15.6-32.78h91.86l13.52,32.78Zm-91.04,0h-87.16l-17.68-32.78h89.24l15.6,32.78Zm-93.64,0h-87.12l-19.76-32.78h89.2l17.68,32.78Zm-88.46,0h-89.68l-21.84-32.78h91.76l19.76,32.78Zm-91.06,0h-86.81l-23.92-32.78h88.89l21.84,32.78Zm-93.88,0h-86.77l-25.99-32.78h88.85l23.91,32.78Zm-88.22,0h-89.56l-28.07-32.78h91.63l25.99,32.78Zm-91.06,0h-86.4l-30.15-32.78h88.48l28.07,32.78Zm-94.16,0H34.16L1.93,292.58h88.43l30.15,32.78Zm-87.96,0H-56.85l-34.31-32.78H.33l32.23,32.78Zm5.61,5.71l32.23,32.78H-16.56l-34.31-32.78H38.17Zm33.35,33.92l32.23,32.78H18.94l-34.31-32.78h86.89Zm1.6,0h83.84l30.15,32.78h-81.76l-32.23-32.78Zm91.6,0h83.89l28.07,32.78h-81.81l-30.15-32.78Zm85.39,0h87.04l25.99,32.78h-84.97l-28.07-32.78Zm88.5,0h84.26l23.91,32.78h-82.18l-25.99-32.78Zm91.32,0h84.3l21.84,32.78h-82.22l-23.91-32.78Zm85.67,0h87.17l19.76,32.78h-85.09l-21.84-32.78Zm88.5,0h84.61l17.68,32.78h-82.53l-19.76-32.78Zm91.09,0h84.65l15.6,32.78h-82.56l-17.68-32.78Zm85.91,0h87.27l13.52,32.78h-85.19l-15.6-32.78Zm88.5,0h84.88l11.44,32.78h-82.8l-13.52-32.78Zm90.93,0h84.9l9.36,32.78h-82.82l-11.44-32.78Zm86.08,0h87.34l7.29,32.78h-85.26l-9.36-32.78Zm88.51,0h85.05l5.21,32.78h-82.97l-7.28-32.78Zm90.82,0h85.06l3.13,32.78h-82.98l-5.21-32.78Zm86.2,0h87.38l1.05,32.78h-85.3l-3.13-32.78Zm88.52,0h85.09l-1.03,32.78h-83.01l-1.05-32.78Zm90.8,0h85.09l-3.11,32.78h-83.01l1.03-32.78Zm86.24,0h87.36l-5.19,32.78h-85.29l3.11-32.78Zm88.52,0h85.02l-7.26,32.78h-82.94l5.19-32.78Zm90.86,0h85l-9.34,32.78h-82.93l7.27-32.78Zm86.19,0h87.32l-11.42,32.78h-85.24l9.34-32.78Zm88.53,0h84.83l-13.5,32.78h-82.75l11.43-32.78Zm91,0h84.8l-15.58,32.78h-82.72l13.5-32.78Zm86.07,0h87.24l-17.66,32.78h-85.16l15.58-32.78Zm88.54,0h84.54l-19.74,32.78h-82.46l17.66-32.78Zm91.2,0h84.51l-21.82,32.78h-82.43l19.74-32.78Zm85.88,0h87.12l-23.89,32.78h-85.05l21.82-32.78Zm88.54,0h84.17l-25.97,32.78h-82.09l23.89-32.78Zm91.45,0h84.13l-28.05,32.78h-82.05l25.97-32.78Zm85.63,0h87l-30.13,32.78h-84.92l28.05-32.78Zm88.55,0h83.74l-32.21,32.78h-81.66l30.13-32.78Zm91.74,0h83.7l-34.29,32.78h-81.62l32.21-32.78Zm85.35,0h86.83l-36.37,32.78h-84.76l34.29-32.78Zm1.19-1.14l34.29-32.78h88.99l-36.37,32.78h-86.91Zm124.98-32.78h85.42l-38.45,32.78h-83.34l36.37-32.78Zm-84.72-5.71l34.29-32.78h91.43l-36.37,32.78h-89.35Zm35.48-33.92l34.29-32.77h93.58l-36.37,32.77h-91.5Zm-1.66,0h-88.36l32.21-32.77h90.44l-34.29,32.77Zm-96.36,0h-88.4l30.13-32.77h90.48l-32.21,32.77Zm-89.95,0h-91.66l28.05-32.77h93.74l-30.13,32.77Zm-93.16,0h-88.79l25.98-32.77h90.87l-28.05,32.77Zm-96.07,0h-88.84l23.9-32.77h90.92l-25.98,32.77Zm-90.25,0h-91.79l21.82-32.77h93.87l-23.89,32.77Zm-93.16,0h-89.17l19.74-32.77h91.25l-21.81,32.77Zm-95.83,0h-89.21l17.66-32.77h91.29l-19.74,32.77Zm-90.5,0h-91.9l15.58-32.77h93.98l-17.66,32.77Zm-93.16,0h-89.47l13.5-32.77h91.54l-15.58,32.77Zm-95.64,0h-89.5l11.42-32.77h91.57l-13.5,32.77Zm-90.7,0h-91.99l9.34-32.77h94.07l-11.42,32.77Zm-93.17,0h-89.67l7.26-32.77h91.75l-9.34,32.77Zm-95.51,0h-89.68l5.19-32.77h91.76l-7.26,32.77Zm-90.84,0h-92.03l3.11-32.77h94.1l-5.18,32.77Zm-93.18,0h-89.76l1.03-32.77h91.83l-3.11,32.77Zm-95.46,0h-89.76l-1.05-32.77h91.84l-1.03,32.77Zm-90.9,0h-92.04l-3.12-32.77h94.11l1.05,32.77Zm-93.19,0h-89.72l-5.21-32.77h91.8l3.12,32.77Zm-95.5,0h-89.71l-7.28-32.77h91.79l5.21,32.77Zm-90.88,0h-92.01l-9.36-32.77h94.08l7.29,32.77Zm-93.19,0h-89.56l-11.45-32.77h91.65l9.36,32.77Zm-95.61,0h-89.54l-13.52-32.77h91.62l11.44,32.77Zm-90.78,0h-91.93l-15.6-32.77h94.01l13.53,32.77Zm-93.2,0h-89.31l-17.68-32.77h91.39l15.6,32.77Zm-95.79,0h-89.27l-19.76-32.77h91.36l17.68,32.77Zm-90.61,0h-91.83l-21.84-32.77h93.91l19.76,32.77Zm-93.2,0h-88.97l-23.91-32.77h91.04l21.84,32.77Zm-96.03,0h-88.92l-25.99-32.77h91l23.92,32.77Zm-90.38,0h-91.71l-28.07-32.77h93.79l25.99,32.77Zm-93.21,0h-88.56l-30.15-32.77h90.63l28.07,32.77Zm-96.31,0H.8l-32.23-32.77H59.16l30.15,32.77Zm-90.11,0h-91.56l-34.31-32.77H-33.02L-.79,291.44Zm-93.21,0h-88.09l-36.39-32.77h90.17l34.31,32.77Zm1.2,1.14l34.31,32.78h-85.94l-36.39-32.78h88.02Zm40.28,38.48l34.31,32.78h-83.5l-36.39-32.78H-52.52Zm35.5,33.92l34.31,32.78h-81.35l-36.38-32.78H-17.02Zm40.28,38.48l34.31,32.78H-21.34l-36.39-32.78H23.26Zm1.65,0h84.45l32.23,32.78H59.22l-34.31-32.78Zm86.05,0h81.4l30.15,32.78h-79.32l-32.23-32.78Zm89.16,0h81.45l28.07,32.78h-79.37l-30.15-32.78Zm82.95,0h84.6l25.99,32.78h-82.52l-28.07-32.78Zm86.06,0h81.82l23.91,32.78h-79.74l-25.99-32.78Zm88.88,0h81.86l21.84,32.78h-79.78l-23.92-32.78Zm83.23,0h84.73l19.76,32.78h-82.65l-21.84-32.78Zm86.06,0h82.17l17.68,32.78h-80.09l-19.75-32.78Zm88.65,0h82.21l15.6,32.78h-80.13l-17.68-32.78Zm83.47,0h84.83l13.52,32.78h-82.75l-15.6-32.78Zm86.06,0h82.44l11.44,32.78h-80.36l-13.52-32.78Zm88.48,0h82.46l9.37,32.78h-80.39l-11.44-32.78Zm83.65,0h84.9l7.29,32.78h-82.82l-9.36-32.78Zm86.07,0h82.6l5.21,32.78h-80.53l-7.29-32.78Zm88.38,0h82.62l3.12,32.78h-80.54l-5.2-32.78Zm83.76,0h84.93l1.05,32.78h-82.85l-3.13-32.78Zm86.08,0h82.65l-1.03,32.78h-80.58l-1.05-32.78Zm88.36,0h82.65l-3.11,32.78h-80.57l1.03-32.78Zm83.8,0h84.92l-5.19,32.78h-82.84l3.11-32.78Zm86.08,0h82.58l-7.27,32.78h-80.5l5.19-32.78Zm88.42,0h82.56l-9.34,32.78h-80.48l7.27-32.78Zm83.75,0h84.88l-11.42,32.78h-82.8l9.34-32.78Zm86.09,0h82.39l-13.5,32.78h-80.31l11.42-32.78Zm88.56,0h82.36l-15.58,32.78h-80.28l13.5-32.78Zm83.62,0h84.8l-17.66,32.78h-82.72l15.58-32.78Zm86.09,0h82.1l-19.74,32.78h-80.02l17.66-32.78Zm88.76,0h82.06l-21.82,32.78h-79.98l19.74-32.78Zm83.44,0h84.69l-23.89,32.78h-82.61l21.82-32.78Zm86.09,0h81.73l-25.97,32.78h-79.65l23.89-32.78Zm89.01,0h81.69l-28.05,32.78h-79.61l25.97-32.78Zm83.19,0h84.55l-30.13,32.78h-82.47l28.05-32.78Zm86.11,0h81.3l-32.21,32.78h-79.22l30.13-32.78Zm89.3,0h81.26l-34.29,32.78h-79.17l32.21-32.78Zm82.91,0h84.39l-36.37,32.78h-82.32l34.29-32.78Zm86.1,0h80.83l-38.44,32.78h-78.75l36.36-32.78Zm6.34-5.71l36.36-32.78h83.27l-38.44,32.78h-81.19Zm128.43-32.78h83.22l-40.52,32.78h-81.14l38.44-32.78Zm1.34-1.14l38.45-32.78h85.37l-40.53,32.78h-83.29Zm-49.43-38.49l36.37-32.78h87.86l-38.44,32.78h-85.79Zm37.64-33.92l36.36-32.77h90.02l-38.45,32.77h-87.93Zm42.7-38.48l36.37-32.78h92.46l-38.45,32.78h-90.37Zm-1.71,0h-93.94l34.29-32.78h96.02l-36.37,32.78Zm-95.59,0h-90.8l32.21-32.78h92.88l-34.29,32.78Zm-98.8,0h-90.85l30.13-32.78h92.92l-32.21,32.78Zm-92.4,0h-94.1l28.05-32.78h96.18l-30.13,32.78Zm-95.6,0h-91.23l25.97-32.78h93.31l-28.05,32.78Zm-98.51,0h-91.28l23.9-32.78h93.36l-25.97,32.78Zm-92.69,0h-94.23l21.81-32.78h96.31l-23.9,32.78Zm-95.61,0h-91.61l19.74-32.78h93.69l-21.82,32.78Zm-98.27,0h-91.65l17.66-32.78h93.72l-19.74,32.78Zm-92.94,0h-94.34l15.58-32.78h96.42l-17.66,32.78Zm-95.6,0h-91.91l13.5-32.78h93.99l-15.58,32.78Zm-98.08,0h-91.93l11.42-32.78h94.02l-13.5,32.78Zm-93.14,0h-94.42l9.34-32.78h96.51l-11.42,32.78Zm-95.61,0h-92.11l7.27-32.78h94.19l-9.35,32.78Zm-97.95,0h-92.12l5.19-32.78h94.2l-7.27,32.78Zm-93.28,0h-94.47l3.11-32.78h96.54l-5.19,32.78Zm-95.62,0h-92.2l1.03-32.78h94.28l-3.11,32.78Zm-97.9,0h-92.2l-1.05-32.78h94.28l-1.03,32.78Zm-93.34,0h-94.48l-3.13-32.78h96.56l1.05,32.78Zm-95.62,0h-92.16l-5.21-32.78h94.24l3.13,32.78Zm-97.94,0h-92.15l-7.28-32.78h94.23l5.21,32.78Zm-93.32,0h-94.44l-9.37-32.78h96.52l7.28,32.78Zm-95.63,0h-92.01l-11.44-32.78h94.09l9.37,32.78Zm-98.05,0h-91.99l-13.52-32.78h94.06l11.45,32.78Zm-93.22,0h-94.37l-15.6-32.78h96.45l13.52,32.78Zm-95.64,0h-91.75l-17.68-32.78h93.83l15.6,32.78Zm-98.23,0h-91.71l-19.76-32.78h93.79l17.68,32.78Zm-93.05,0h-94.28l-21.84-32.78h96.35l19.76,32.78Zm-95.65,0h-91.4l-23.92-32.78h93.48l21.84,32.78Zm-98.47,0h-91.36l-25.99-32.78h93.44l23.92,32.78Zm-92.82,0h-94.14l-28.08-32.78h96.23l25.99,32.78Zm-95.65,0H61.67l-30.15-32.78h93.07l28.08,32.78Zm-98.75,0H-37.03l-32.23-32.78H23.76l30.15,32.78Zm-92.54,0h-94l-34.31-32.78h96.08l32.23,32.78Zm-95.65,0h-90.53l-36.39-32.78h92.62l34.31,32.78Zm-99.06,0h-90.48l-38.47-32.78h92.56l36.39,32.78Zm6.33,5.71l36.39,32.77h-88.04l-38.46-32.77h90.12Zm37.66,33.92l36.39,32.78h-85.89l-38.47-32.78h87.97Zm42.72,38.48l36.39,32.78h-83.45l-38.47-32.78h85.53Zm37.65,33.92l36.39,32.78h-81.3l-38.47-32.78h83.38Zm42.72,38.48l36.39,32.78h-78.86l-38.46-32.78h80.94Zm37.65,33.92l36.39,32.78h-76.71l-38.47-32.78H-28.6Zm8.53,0H58.76l34.31,32.78H16.31l-36.39-32.78Zm80.49,0h82.3l32.23,32.78h-80.22l-34.31-32.78Zm83.91,0h79.25l30.15,32.78h-77.17l-32.23-32.78Zm87,0h79.3l28.07,32.78h-77.22l-30.15-32.78Zm80.8,0h82.45l25.99,32.78h-80.37l-28.07-32.78Zm83.9,0h79.67l23.92,32.78h-77.59l-25.99-32.78Zm86.73,0h79.71l21.84,32.78h-77.63l-23.92-32.78Zm81.08,0h82.58l19.76,32.78h-80.5l-21.84-32.78Zm83.91,0h80.02l17.68,32.78h-77.94l-19.76-32.78Zm86.5,0h80.05l15.6,32.78h-77.97l-17.68-32.78Zm81.32,0h82.68l13.52,32.78h-80.6l-15.6-32.78Zm83.91,0h80.29l11.45,32.78h-78.21l-13.52-32.78Zm86.33,0h80.31l9.37,32.78h-78.23l-11.44-32.78Zm81.5,0h82.75l7.28,32.78h-80.67l-9.36-32.78Zm83.92,0h80.45l5.21,32.78h-78.38l-7.29-32.78Zm86.23,0h80.46l3.13,32.78h-78.39l-5.2-32.78Zm81.61,0h82.78l1.05,32.78h-80.7l-3.13-32.78Zm83.93,0h80.5l-1.03,32.78h-78.42l-1.05-32.78Zm86.21,0h80.5l-3.11,32.78h-78.42l1.03-32.78Zm81.65,0h82.77l-5.19,32.78h-80.7l3.11-32.78Zm83.93,0h80.43l-7.27,32.78h-78.35l5.18-32.78Zm86.27,0h80.41l-9.34,32.78h-78.33l7.27-32.78Zm81.6,0h82.73l-11.42,32.78h-80.65l9.35-32.78Zm83.94,0h80.24l-13.5,32.78h-78.16l11.42-32.78Zm86.41,0h80.21l-15.58,32.78h-78.13l13.5-32.78Zm81.47,0h82.65l-17.66,32.78h-80.56l15.58-32.78Zm83.94,0h79.94l-19.74,32.78h-77.87l17.66-32.78Zm86.61,0h79.91l-21.82,32.78h-77.83l19.74-32.78Zm81.29,0h82.53l-23.9,32.78h-80.46l21.82-32.78Zm83.94,0h79.58l-25.98,32.78h-77.5l23.9-32.78Zm86.86,0h79.53l-28.06,32.78h-77.45l25.98-32.78Zm81.04,0h82.4l-30.13,32.78h-80.32l28.05-32.78Zm83.95,0h79.15l-32.21,32.78h-77.07l30.13-32.78Zm87.15,0h79.1l-34.29,32.78h-77.03l32.21-32.78Zm80.75,0h82.25l-36.37,32.78h-80.17l34.29-32.78Zm83.95,0h78.67l-38.45,32.78h-76.6l36.37-32.78Zm87.47,0h78.62l-40.53,32.78h-76.54l38.45-32.78Zm1.34-1.14l38.45-32.78h80.77l-40.52,32.78h-78.7Zm121.03-32.78h84.23l-42.6,32.78h-82.16l40.52-32.78Zm7.06-5.71l40.52-32.78h86.68l-42.6,32.78h-84.6Zm41.93-33.92l40.53-32.78h88.82l-42.61,32.78h-86.75Zm-39.96-38.49l38.45-32.78h87.81l-40.52,32.78h-85.73Zm39.79-33.92l38.44-32.77h89.96l-40.53,32.77h-87.88Zm45.14-38.48l38.45-32.78h92.4l-40.53,32.78h-90.32Zm39.78-33.92l38.45-32.77h94.55l-40.52,32.77h-92.47Zm-8.79,0h-92.53l36.36-32.77h94.61l-38.45,32.77Zm-94.23,0h-96.1l34.29-32.77h98.17l-36.37,32.77Zm-97.75,0h-92.96l32.21-32.77h95.03l-34.28,32.77Zm-100.95,0h-93l30.13-32.77h95.08l-32.21,32.77Zm-94.54,0h-96.25l28.05-32.77h98.33l-30.13,32.77Zm-97.75,0h-93.38l25.97-32.77h95.46l-28.05,32.77Zm-100.66,0h-93.43l23.9-32.77h95.51l-25.97,32.77Zm-94.84,0h-96.38l21.82-32.77h98.46l-23.89,32.77Zm-97.76,0h-93.76l19.74-32.77h95.84l-21.82,32.77Zm-100.42,0h-93.8l17.66-32.77h95.87l-19.74,32.77Zm-95.1,0h-96.49l15.58-32.77h98.57l-17.66,32.77Zm-97.75,0h-94.06l13.5-32.77h96.14l-15.58,32.77Zm-100.23,0h-94.08l11.42-32.77h96.16l-13.5,32.77Zm-95.29,0h-96.58l9.34-32.77h98.66l-11.42,32.77Zm-97.76,0h-94.26l7.26-32.77h96.34l-9.34,32.77Zm-100.11,0h-94.27l5.19-32.77h96.35l-7.27,32.77Zm-95.43,0h-96.62l3.11-32.77h98.7l-5.19,32.77Zm-97.77,0h-94.35l1.03-32.77h96.43l-3.11,32.77Zm-98.85-38.48h-96.79l-1.05-32.78h98.87l-1.03,32.78Zm-.18,5.71l-1.03,32.77h-94.35l-1.05-32.77h96.43Zm-96.52,32.77h-96.63l-3.13-32.77h98.71l1.05,32.77Zm-97.78,0h-94.32l-5.2-32.77h96.4l3.12,32.77Zm-100.09,0h-94.3l-7.29-32.77h96.38l5.21,32.77Zm-95.47,0h-96.6l-9.36-32.77h98.67l7.29,32.77Zm-97.78,0h-94.16l-11.44-32.77h96.23l9.37,32.77Zm-100.2,0h-94.14l-13.52-32.77h96.21l11.44,32.77Zm-95.37,0h-96.52l-15.6-32.77h98.6l13.52,32.77Zm-97.79,0h-93.9l-17.68-32.77h95.98l15.6,32.77Zm-100.38,0h-93.87l-19.76-32.77h95.95l17.68,32.77Zm-95.2,0h-96.42l-21.84-32.77h98.5l19.76,32.77Zm-97.8,0h-93.56l-23.91-32.77h95.63l21.84,32.77Zm-100.62,0h-93.51l-25.99-32.77h95.59l23.92,32.77Zm-94.97,0h-96.3l-28.07-32.77h98.37l25.99,32.77Zm-97.8,0H30.47L.31,186.26h95.23l28.07,32.77Zm-100.9,0h-93.1l-32.23-32.77H-7.44l30.15,32.77Zm-94.7,0h-96.15l-34.31-32.77h98.23l32.23,32.77Zm-97.8,0h-92.69l-36.39-32.77h94.76l34.31,32.77Zm-101.21,0h-92.64l-38.46-32.77h94.71l36.39,32.77Zm-94.4,0h-95.98l-40.55-32.77h98.06l38.47,32.77Zm1.34,1.14l38.47,32.78h-93.84l-40.55-32.78h95.91Zm45.16,38.48l38.47,32.77h-91.4l-40.54-32.77h93.47Zm39.81,33.92l38.46,32.78h-89.24l-40.54-32.78h91.32Zm45.16,38.48l38.47,32.78h-86.8l-40.55-32.78h88.88Zm39.81,33.92l38.46,32.78h-84.65l-40.54-32.78h86.73Zm45.16,38.48l38.47,32.78h-82.21l-40.54-32.78h84.29Zm39.81,33.92l38.47,32.78h-80.06l-40.55-32.78h82.14Zm45.16,38.48l38.47,32.78h-77.62l-40.55-32.78H-63.98Zm1.76,0H14.12l36.39,32.78H-23.75l-38.47-32.78Zm84.87,0h76.4l34.31,32.78H59.04l-36.39-32.78Zm78.05,0h79.86l32.23,32.78h-77.78l-34.31-32.78Zm81.46,0h76.81l30.15,32.78h-74.73l-32.23-32.78Zm84.56,0h76.85l28.08,32.78h-74.78l-30.15-32.78Zm78.36,0h80.01l26,32.78h-77.93l-28.08-32.78Zm81.46,0h77.23l23.92,32.78h-75.15l-26-32.78Zm84.29,0h77.27l21.84,32.78h-75.19l-23.92-32.78Zm78.64,0h80.14l19.76,32.78h-78.06l-21.84-32.78Zm81.47,0h77.58l17.68,32.78h-75.5l-19.76-32.78Zm84.06,0h77.61l15.6,32.78h-75.53l-17.68-32.78Zm78.88,0h80.24l13.52,32.78h-78.16l-15.6-32.78Zm81.47,0h77.85l11.44,32.78h-75.77l-13.52-32.78Zm83.89,0h77.87l9.37,32.78h-75.79l-11.44-32.78Zm79.06,0h80.31l7.29,32.78h-78.23l-9.37-32.78Zm81.48,0h78.01l5.21,32.78h-75.93l-7.29-32.78Zm83.79,0h78.03l3.12,32.78h-75.95l-5.21-32.78Zm79.17,0h80.34l1.05,32.78h-78.26l-3.13-32.78Zm81.48,0h78.06l-1.03,32.78h-75.98l-1.05-32.78Zm83.77,0h78.06l-3.11,32.78h-75.98l1.03-32.78Zm79.21,0h80.33l-5.19,32.78h-78.25l3.11-32.78Zm81.49,0h77.99l-7.27,32.78h-75.91l5.19-32.78Zm83.83,0h77.97l-9.35,32.78h-75.89l7.27-32.78Zm79.16,0h80.29l-11.42,32.78h-78.21l9.35-32.78Zm81.5,0h77.8l-13.5,32.78h-75.72l11.42-32.78Zm83.97,0h77.77l-15.58,32.78h-75.69l13.5-32.78Zm79.03,0h80.2l-17.66,32.78h-78.12l15.58-32.78Zm81.5,0h77.51l-19.74,32.78h-75.43l17.66-32.78Zm84.17,0h77.47l-21.82,32.78h-75.39l19.74-32.78Zm78.84,0h80.09l-23.9,32.78h-78.01l21.82-32.78Zm81.5,0h77.14l-25.98,32.78h-75.06l23.9-32.78Zm84.42,0h77.1l-28.05,32.78h-75.02l25.98-32.78Zm78.6,0h79.96l-30.13,32.78h-77.88l28.05-32.78Zm81.51,0h76.71l-32.21,32.78h-74.63l30.13-32.78Zm84.71,0h76.66l-34.29,32.78h-74.58l32.21-32.78Zm78.32,0h79.81l-36.37,32.78h-77.73l34.29-32.78Zm81.51,0h76.24l-38.45,32.78h-74.16l36.37-32.78Zm85.03,0h76.18l-40.53,32.78h-74.11l38.45-32.78Zm78,0h79.64l-42.61,32.78h-77.57l40.53-32.78Zm7.05-5.71l40.53-32.78h82.08l-42.61,32.78h-80Zm124.48-32.78h78.17l-44.68,32.78h-76.09l42.61-32.78Zm1.48-1.14l42.6-32.78h80.32l-44.68,32.78h-78.24Zm50.02-38.48l42.6-32.78h82.75l-44.68,32.78h-80.68Zm44.09-33.92l42.6-32.78h84.91l-44.68,32.78h-82.83Zm-41.04-38.49l40.52-32.78h91.27l-42.6,32.78h-89.19Zm41.94-33.92l40.53-32.77h93.42l-42.6,32.77h-91.34Zm47.58-38.48l40.53-32.78h95.86l-42.61,32.78h-93.78Zm41.94-33.92l40.52-32.77h98.01l-42.6,32.77h-95.93Zm45.77-38.48h-94.91l38.44-32.78h96.99l-40.52,32.78Zm-103.71,0h-94.97l36.36-32.78h97.05l-38.45,32.78Zm-96.67,0h-98.54l34.29-32.78h100.61l-36.37,32.78Zm-100.19,0h-95.39l32.21-32.78h97.47l-34.29,32.78Zm-103.4,0h-95.44l30.13-32.78h97.52l-32.21,32.78Zm-96.99,0h-98.69l28.05-32.78h100.77l-30.13,32.78Zm-100.19,0h-95.82l25.97-32.78h97.9l-28.05,32.78Zm-103.1,0h-95.87l23.9-32.78h97.95l-25.97,32.78Zm-97.28,0h-98.83l21.82-32.78h100.9l-23.89,32.78Zm-100.2,0h-96.2l19.74-32.78h98.28l-21.82,32.78Zm-102.86,0h-96.24l17.66-32.78h98.32l-19.74,32.78Zm-97.54,0h-98.93l15.58-32.78h101.01l-17.66,32.78Zm-100.2,0h-96.5l13.5-32.78h98.58l-15.58,32.78Zm-102.67,0h-96.53l11.42-32.78h98.61l-13.5,32.78Zm-97.74,0h-99.02l9.34-32.78h101.1l-11.43,32.78Zm-100.2,0h-96.7l7.26-32.78h98.78l-9.34,32.78Zm-102.55,0h-96.71l5.19-32.78h98.79l-7.26,32.78Zm-97.87,0h-99.06l3.11-32.78h101.14l-5.18,32.78Zm-100.21,0h-96.79l1.03-32.78h98.87l-3.11,32.78Zm-101.43-33.92h-98.94l-1.05-32.78h101.02l-1.03,32.78Zm-100.09,0h-101.22l-3.13-32.78h103.3l1.05,32.78Zm.04,1.14l1.05,32.78h-99.07l-3.13-32.78h101.15Zm-99.17,32.78h-96.76l-5.21-32.78h98.83l3.13,32.78Zm-102.53,0h-96.74l-7.28-32.78h98.82l5.21,32.78Zm-97.91,0h-99.04l-9.36-32.78h101.11l7.29,32.78Zm-100.22,0h-96.6l-11.44-32.78h98.68l9.36,32.78Zm-102.64,0h-96.58l-13.52-32.78h98.66l11.44,32.78Zm-97.81,0h-98.97l-15.6-32.78h101.04l13.52,32.78Zm-100.23,0h-96.34l-17.68-32.78h98.42l15.6,32.78Zm-102.83,0h-96.31l-19.76-32.78h98.39l17.68,32.78Zm-97.64,0h-98.87l-21.84-32.78h100.95l19.76,32.78Zm-100.24,0h-96l-23.92-32.78h98.08l21.84,32.78Zm-103.06,0h-95.95l-25.99-32.78h98.03l23.91,32.78Zm-97.41,0h-98.74l-28.07-32.78h100.82l25.99,32.78Zm-100.24,0H-4.94l-30.15-32.78H62.58l28.07,32.78Zm-103.34,0h-95.54l-32.23-32.78H-42.84l30.15,32.78Zm-97.14,0h-98.59l-34.31-32.78h100.67l32.23,32.78Zm-100.24,0h-95.13l-36.39-32.78h97.21l34.31,32.78Zm-103.65,0h-95.07l-38.47-32.78h97.15l36.39,32.78Zm-96.84,0h-98.43l-40.54-32.78h100.5l38.46,32.78Zm-100.24,0h-94.63l-42.62-32.78h96.71l40.54,32.78Zm7.06,5.71l40.54,32.77h-92.19l-42.62-32.77h94.26Zm41.96,33.92l40.55,32.78h-90.04l-42.63-32.78h92.11Zm47.6,38.48l40.54,32.77h-87.6l-42.62-32.77h89.67Zm41.96,33.92l40.54,32.78h-85.45l-42.62-32.78h87.52Zm47.6,38.48l40.55,32.78h-83l-42.63-32.78h85.08Zm41.96,33.92l40.54,32.78h-80.85l-42.62-32.78h82.93Zm47.61,38.48l40.54,32.78h-78.41l-42.62-32.78h80.49Zm41.95,33.92l40.55,32.78h-76.26l-42.62-32.78h78.34Zm47.6,38.48l40.55,32.78h-73.82l-42.62-32.78h75.9Zm41.96,33.92l40.54,32.78h-71.67l-42.62-32.78h73.75Zm1.82,0H-24.18l38.47,32.78H-61.18l-40.54-32.78Zm79.31,0H51.78l36.39,32.78H16.05l-38.46-32.78Zm82.72,0h74.25l34.31,32.78h-72.17l-36.39-32.78Zm75.9,0h77.71l32.23,32.78h-75.63l-34.31-32.78Zm79.31,0h74.66l30.15,32.78h-72.58l-32.23-32.78Zm82.41,0h74.71l28.07,32.78h-72.63l-30.15-32.78Zm76.21,0h77.85l25.99,32.78h-75.78l-28.07-32.78Zm79.31,0h75.08l23.92,32.78h-73l-25.99-32.78Zm82.14,0h75.12l21.83,32.78h-73.04l-23.91-32.78Zm76.49,0h77.99l19.76,32.78h-75.91l-21.84-32.78Zm79.31,0h75.43l17.68,32.78h-73.35l-19.76-32.78Zm81.91,0h75.46l15.6,32.78h-73.38l-17.68-32.78Zm76.72,0h78.09l13.52,32.78h-76.01l-15.6-32.78Zm79.32,0h75.7l11.44,32.78h-73.62l-13.53-32.78Zm81.74,0h75.72l9.36,32.78h-73.64l-11.44-32.78Zm76.91,0h78.16l7.28,32.78h-76.08l-9.36-32.78Zm79.32,0h75.86l5.21,32.78h-73.78l-7.29-32.78Zm81.64,0h75.88l3.13,32.78h-73.8l-5.21-32.78Zm77.02,0h78.19l1.05,32.78h-76.11l-3.13-32.78Zm79.33,0h75.91l-1.03,32.78h-73.83l-1.05-32.78Zm81.62,0h75.91l-3.11,32.78h-73.83l1.03-32.78Zm77.06,0h78.18l-5.19,32.78h-76.1l3.11-32.78Zm79.34,0h75.84l-7.27,32.78h-73.76l5.18-32.78Zm81.68,0h75.82l-9.34,32.78h-73.75l7.27-32.78Zm77.01,0h78.14l-11.42,32.78h-76.06l9.34-32.78Zm79.35,0h75.64l-13.5,32.78h-73.56l11.42-32.78Zm81.82,0h75.62l-15.58,32.78h-73.54l13.5-32.78Zm76.88,0h78.05l-17.66,32.78h-75.97l15.58-32.78Zm79.35,0h75.36l-19.74,32.78h-73.28l17.66-32.78Zm82.02,0h75.32l-21.82,32.78h-73.24l19.74-32.78Zm76.69,0h77.94l-23.9,32.78h-75.86l21.82-32.78Zm79.35,0h74.99l-25.98,32.78h-72.91l23.89-32.78Zm82.27,0h74.95l-28.05,32.78h-72.86l25.97-32.78Zm76.45,0h77.8l-30.13,32.78h-75.73l28.05-32.78Zm79.36,0h74.55l-32.21,32.78h-72.48l30.13-32.78Zm82.56,0h74.51l-34.29,32.78h-72.43l32.21-32.78Zm76.16,0h77.66l-36.37,32.78h-75.58l34.29-32.78Zm79.36,0h74.09l-38.44,32.78h-72.01l36.37-32.78Zm82.88,0h74.03l-40.53,32.78h-71.95l38.44-32.78Zm75.85,0h77.49l-42.6,32.78h-75.42l40.52-32.78Zm79.36,0h73.58l-44.68,32.78h-71.5l42.6-32.78Zm1.48-1.14l42.61-32.78h75.72l-44.68,32.78h-73.65Zm127.98-32.78h75.67l-46.76,32.78h-73.59l44.68-32.78Zm7.78-5.71l44.69-32.78h78.11l-46.76,32.78h-76.03Zm46.24-33.92l44.68-32.78h80.26l-46.76,32.78h-78.18Zm52.46-38.48l44.68-32.78h82.7l-46.76,32.78h-80.62Zm46.24-33.92l44.68-32.78h84.85l-46.76,32.78h-82.77Zm-42.46-38.49l42.6-32.78h87.35l-44.68,32.78h-85.27Zm44.09-33.92l42.6-32.77h89.5l-44.68,32.77h-87.42Zm50.02-38.48l42.61-32.78h91.94l-44.68,32.78h-89.86Zm44.09-33.92l42.6-32.77h94.09l-44.68,32.77h-92.01Zm146.35-32.77h94.03l-46.76,32.77h-91.96l44.68-32.77Zm7.78-5.71l44.68-32.78h96.48l-46.76,32.78h-94.4Zm46.24-33.92l44.68-32.78h98.62l-46.76,32.78h-96.55Zm-9.65,0h-96.6l42.6-32.78h98.68l-44.68,32.78Zm-98.48,0h-100.53l40.53-32.78h102.6l-42.6,32.78Zm-102.34,0h-97.06l38.44-32.78h99.14l-40.52,32.78Zm-105.86,0h-97.12l36.37-32.78h99.2l-38.45,32.78Zm-98.82,0h-100.69l34.29-32.78h102.77l-36.37,32.78Zm-102.34,0h-97.54l32.21-32.78h99.62l-34.29,32.78Zm-105.54,0h-97.59l30.13-32.78h99.67l-32.21,32.78Zm-99.14,0h-100.84l28.05-32.78h102.92l-30.13,32.78Zm-102.34,0h-97.98l25.97-32.78h100.05l-28.05,32.78Zm-105.25,0h-98.02l23.9-32.78h100.1l-25.97,32.78Zm-99.43,0h-100.97l21.81-32.78h103.06l-23.89,32.78Zm-102.35,0h-98.35l19.74-32.78h100.43l-21.82,32.78Zm-105.01,0h-98.39l17.66-32.78h100.46l-19.74,32.78Zm-99.69,0h-101.08l15.58-32.78h103.16l-17.66,32.78Zm-102.35,0h-98.65l13.5-32.78h100.73l-15.58,32.78Zm-104.82,0h-98.68l11.42-32.78h100.76l-13.5,32.78Zm-99.89,0h-101.17l9.35-32.78h103.25l-11.43,32.78Zm-102.35,0h-98.85l7.27-32.78h100.93l-9.34,32.78Zm-104.7,0h-98.86l5.19-32.78h100.94l-7.27,32.78Zm-100.02,0h-101.21l3.11-32.78h103.29l-5.19,32.78Zm-102.36,0h-98.94l1.03-32.78h101.02l-3.11,32.78Zm-103.44-38.48h-101.38l-1.05-32.78h103.46l-1.03,32.78Zm-102.53,0h-103.66l-3.13-32.78h105.74l1.05,32.78Zm-104.81,0h-101.35l-5.21-32.78h103.43l3.13,32.78Zm.55,5.71l3.12,32.78h-98.9l-5.21-32.78h100.99Zm-101.56,32.78h-98.89l-7.29-32.78h100.97l5.21,32.78Zm-100.06,0h-101.19l-9.37-32.78h103.27l7.29,32.78Zm-102.37,0h-98.75l-11.45-32.78h100.83l9.37,32.78Zm-104.79,0h-98.73l-13.52-32.78h100.81l11.44,32.78Zm-99.96,0h-101.12l-15.6-32.78h103.2l13.52,32.78Zm-102.38,0h-98.49l-17.68-32.78h100.57l15.6,32.78Zm-104.98,0h-98.46l-19.76-32.78h100.54l17.68,32.78Zm-99.79,0h-101.02l-21.84-32.78h103.1l19.76,32.78Zm-102.39,0h-98.15l-23.92-32.78h100.23l21.84,32.78Zm-105.21,0h-98.11l-25.99-32.78h100.18l23.92,32.78Zm-99.56,0H63.1l-28.07-32.78h102.97l25.99,32.78Zm-102.39,0H-36.14l-30.15-32.78H33.53l28.07,32.78Zm-105.49,0h-97.69l-32.23-32.78h99.77l30.15,32.78Zm-99.29,0h-100.74l-34.31-32.78h102.82l32.23,32.78Zm-102.39,0h-97.28l-36.39-32.78h99.36l34.31,32.78Zm-105.8,0h-97.23l-38.46-32.78h99.3l36.39,32.78Zm-98.99,0h-100.58l-40.54-32.78h102.65l38.47,32.78Zm-102.39,0h-96.78l-42.62-32.78h98.86l40.54,32.78Zm-106.14,0h-96.72l-44.7-32.78h98.8l42.62,32.78Zm1.49,1.14l42.62,32.78h-94.57l-44.7-32.78h96.65Zm50.04,38.48l42.62,32.77h-92.13l-44.7-32.77h94.21Zm44.11,33.92l42.62,32.78h-89.98l-44.7-32.78h92.06Zm50.05,38.48l42.62,32.77h-87.54l-44.7-32.77h89.62Zm44.11,33.92l42.62,32.78h-85.38l-44.7-32.78h87.46Zm50.04,38.48l42.62,32.78h-82.94l-44.7-32.78h85.02Zm44.11,33.92l42.62,32.78h-80.79l-44.7-32.78h82.87Zm50.04,38.48l42.62,32.78h-78.35l-44.7-32.78h80.43Zm44.11,33.92l42.62,32.78h-76.2l-44.7-32.78h78.28Zm50.04,38.48l42.63,32.78h-73.76l-44.7-32.78h75.84Zm44.11,33.92l42.62,32.78h-71.61l-44.7-32.78h73.69Zm50.04,38.48l42.63,32.78h-69.17l-44.71-32.78h71.25Zm9.37,0H-55.94l40.55,32.78h-69.23l-42.63-32.78Zm73.12,0H20.98l38.47,32.78H-13.57l-40.55-32.78Zm76.87,0h71.75l36.39,32.78H61.21l-38.47-32.78Zm80.28,0h71.81l34.31,32.78h-69.73l-36.39-32.78Zm73.46,0h75.27l32.23,32.78h-73.19l-34.31-32.78Zm76.87,0h72.22l30.16,32.78h-70.14l-32.23-32.78Zm79.97,0h72.26l28.08,32.78h-70.19l-30.15-32.78Zm73.77,0h75.41l26,32.78h-73.34l-28.08-32.78Zm76.87,0h72.64l23.92,32.78h-70.56l-26-32.78Zm79.7,0h72.68l21.84,32.78h-70.6l-23.92-32.78Zm74.05,0h75.55l19.76,32.78h-73.47l-21.84-32.78Zm76.88,0h72.98l17.68,32.78h-70.91l-19.76-32.78Zm79.47,0h73.02l15.6,32.78h-70.94l-17.68-32.78Zm74.28,0h75.65l13.52,32.78h-73.57l-15.6-32.78Zm76.88,0h73.26l11.44,32.78h-71.18l-13.52-32.78Zm79.3,0h73.28l9.36,32.78h-71.19l-11.45-32.78Zm74.47,0h75.71l7.28,32.78h-73.63l-9.37-32.78Zm76.88,0h73.42l5.21,32.78h-71.34l-7.29-32.78Zm79.2,0h73.43l3.13,32.78h-71.35l-5.21-32.78Zm74.58,0h75.75l1.05,32.78h-73.67l-3.13-32.78Zm76.9,0h73.47l-1.03,32.78h-71.39l-1.05-32.78Zm79.17,0h73.47l-3.11,32.78h-71.39l1.03-32.78Zm74.62,0h75.74l-5.19,32.78h-73.67l3.11-32.78Zm76.9,0h73.4l-7.26,32.78h-71.32l5.19-32.78Zm79.24,0h73.38l-9.34,32.78h-71.3l7.27-32.78Zm74.57,0h75.7l-11.43,32.78h-73.62l9.35-32.78Zm76.91,0h73.2l-13.5,32.78h-71.12l11.42-32.78Zm79.38,0h73.18l-15.58,32.78h-71.1l13.51-32.78Zm74.44,0h75.61l-17.66,32.78h-73.53l15.58-32.78Zm76.91,0h72.91l-19.74,32.78h-70.84l17.66-32.78Zm79.57,0h72.88l-21.82,32.78h-70.8l19.74-32.78Zm74.25,0h75.5l-23.9,32.78h-73.42l21.82-32.78Zm76.92,0h72.54l-25.98,32.78h-70.47l23.9-32.78Zm79.83,0h72.5l-28.05,32.78h-70.42l25.98-32.78Zm74.01,0h75.37l-30.14,32.78h-73.29l28.06-32.78Zm76.92,0h72.11l-32.21,32.78h-70.04l30.13-32.78Zm80.12,0h72.07l-34.29,32.78h-69.99l32.21-32.78Zm73.72,0h75.21l-36.37,32.78h-73.14l34.29-32.78Zm76.92,0h71.65l-38.45,32.78h-69.57l36.37-32.78Zm80.44,0h71.59l-40.53,32.78h-69.51l38.45-32.78Zm73.4,0h75.05l-42.61,32.78h-72.97l40.53-32.78Zm76.92,0h71.13l-44.69,32.78h-69.06l42.61-32.78Zm80.79,0h71.07l-46.77,32.78h-68.99l44.69-32.78Zm7.78-5.71l44.68-32.78h73.52l-46.76,32.78h-71.44Zm120.19-32.78h77.32l-48.84,32.78h-75.24l46.76-32.78Zm1.62-1.14l46.76-32.78h79.47l-48.84,32.78h-77.39Zm54.9-38.48l46.76-32.78h81.91l-48.84,32.78h-79.83Zm48.4-33.92l46.76-32.78h84.06l-48.84,32.78h-81.98Zm54.9-38.48l46.76-32.78h86.5l-48.84,32.78h-84.42Zm48.39-33.92l46.76-32.78h88.65l-48.84,32.78h-86.57Zm-32.3-38.49l44.68-32.78h87.29l-46.76,32.78h-85.21Zm46.24-33.92l44.68-32.77h89.44l-46.76,32.77h-87.36Zm52.46-38.48l44.68-32.78h91.89l-46.76,32.78h-89.81Zm138.56-32.78h95.68l-48.84,32.78h-93.6l46.76-32.78Zm1.63-1.14l46.76-32.77h97.83l-48.84,32.77h-95.76Zm54.9-38.48l46.76-32.78h100.28l-48.84,32.78h-98.2Zm48.39-33.92l46.76-32.78h102.43l-48.84,32.78h-100.35Zm54.9-38.48l46.76-32.78h104.86l-48.84,32.78h-102.79Zm-1.99,0h-98.99l44.68-32.78h101.07l-46.76,32.78Zm-108.64,0h-99.05l42.6-32.78h101.13l-44.68,32.78Zm-100.92,0h-102.96l40.52-32.78h105.04l-42.61,32.78Zm-104.78,0h-99.5l38.44-32.78h101.58l-40.52,32.78Zm-108.3,0h-99.56l36.37-32.78h101.64l-38.44,32.78Zm-101.26,0h-103.13l34.29-32.78h105.21l-36.37,32.78Zm-104.78,0h-99.98l32.21-32.78h102.06l-34.29,32.78Zm-107.99,0h-100.03l30.13-32.78h102.11l-32.21,32.78Zm-101.58,0h-103.29l28.06-32.78h105.36l-30.13,32.78Zm-104.79,0h-100.41l25.97-32.78h102.49l-28.05,32.78Zm-107.7,0h-100.46l23.9-32.78h102.54l-25.97,32.78Zm-101.87,0h-103.42l21.82-32.78h105.5l-23.89,32.78Zm-104.79,0h-100.79l19.73-32.78h102.88l-21.82,32.78Zm-107.45,0h-100.83l17.66-32.78h102.91l-19.74,32.78Zm-102.13,0h-103.52l15.58-32.78h105.61l-17.66,32.78Zm-104.79,0h-101.09l13.5-32.78h103.17l-15.58,32.78Zm-107.26,0h-101.12l11.42-32.78h103.2l-13.5,32.78Zm-102.33,0h-103.61l9.35-32.78h105.69l-11.42,32.78Zm-104.8,0h-101.29l7.26-32.78h103.37l-9.34,32.78Zm-107.14,0h-101.31l5.19-32.78h103.38l-7.27,32.78Zm-102.46,0h-103.65l3.11-32.78h105.73l-5.19,32.78Zm-104.8,0h-101.38l1.03-32.78h103.46l-3.11,32.78Zm-100.31-33.92l1.03-32.78h105.61l-3.11,32.78h-103.53Zm-5.71,0h-103.53l-1.05-32.78h105.61l-1.03,32.78Zm-104.68,0h-105.81l-3.13-32.78h107.89l1.05,32.78Zm-106.96,0h-103.5l-5.21-32.78h105.58l3.12,32.78Zm-109.28,0h-103.48l-7.29-32.78h105.56l5.21,32.78Zm.18,1.14l5.21,32.78h-101.33l-7.29-32.78h103.41Zm-97.29,32.78h-103.63l-9.36-32.78h105.71l7.29,32.78Zm-104.82,0h-101.19l-11.44-32.78h103.27l9.36,32.78Zm-107.23,0h-101.17l-13.52-32.78h103.25l11.44,32.78Zm-102.41,0h-103.56l-15.6-32.78h105.64l13.52,32.78Zm-104.82,0h-100.94l-17.68-32.78h103.01l15.6,32.78Zm-107.42,0h-100.9l-19.76-32.78h102.98l17.68,32.78Zm-102.23,0h-103.46l-21.84-32.78h105.54l19.76,32.78Zm-104.83,0h-100.59l-23.92-32.78h102.67l21.84,32.78Zm-107.66,0h-100.54l-25.99-32.78h102.63l23.91,32.78Zm-102,0H30.15L2.07,75.38h105.41l25.99,32.78Zm-104.83,0h-100.18l-30.15-32.78H.57l28.07,32.78Zm-107.93,0h-100.13l-32.23-32.78h102.21l30.15,32.78Zm-101.73,0h-103.18l-34.31-32.78h105.26l32.23,32.78Zm-104.83,0h-99.72l-36.39-32.78h101.8l34.31,32.78Zm-108.25,0h-99.67l-38.47-32.78h101.75l36.39,32.78Zm-101.43,0h-103.02l-40.54-32.78h105.1l38.47,32.78Zm-104.84,0h-99.22l-42.62-32.78h101.29l40.54,32.78Zm-108.58,0h-99.16l-44.7-32.78h101.24l42.62,32.78Zm-93.31,5.71l44.7,32.78h-100.4l-46.78-32.78h102.48Zm98.75,72.4l44.7,32.77h-95.81l-46.78-32.77h97.89Zm98.74,72.4l44.7,32.77h-91.22l-46.78-32.77h93.3Zm46.26,33.92l44.7,32.78h-89.07l-46.78-32.78h91.15Zm52.48,38.48l44.71,32.78h-86.63l-46.78-32.78h88.71Zm98.75,72.4l44.7,32.78h-82.04l-46.78-32.78h84.12Zm98.74,72.4l44.7,32.78h-77.44l-46.78-32.78h79.52Zm46.26,33.92l44.7,32.78h-75.29l-46.78-32.78h77.37Zm-32.59,32.78h-71.14l-48.86-32.78h73.22l46.78,32.78Zm10.13,5.71h74.94l44.71,32.78h-72.86l-46.79-32.78Zm121.2,33.92l44.7,32.78h-70.7l-46.78-32.78h72.78Zm1.93,0h69.1l42.62,32.78h-67.02l-44.7-32.78Zm78.46,0H-13.98l40.54,32.78H-40.51l-42.62-32.78Zm70.97,0H60.8l38.46,32.78H28.38l-40.54-32.78Zm74.71,0h69.6l36.39,32.78h-67.52l-38.47-32.78Zm78.13,0h69.66l34.31,32.78h-67.58l-36.39-32.78Zm71.31,0h73.12l32.23,32.78h-71.04l-34.31-32.78Zm74.72,0h70.07l30.15,32.78h-67.99l-32.23-32.78Zm77.82,0h70.11l28.07,32.78h-68.03l-30.15-32.78Zm71.62,0h73.27l25.99,32.78h-71.19l-28.07-32.78Zm74.72,0h70.49l23.91,32.78h-68.41l-25.99-32.78Zm77.55,0h70.53l21.84,32.78h-68.45l-23.91-32.78Zm71.9,0h73.39l19.76,32.78h-71.31l-21.83-32.78Zm74.72,0h70.83l17.68,32.78h-68.76l-19.76-32.78Zm77.32,0h70.87l15.6,32.78h-68.79l-17.68-32.78Zm72.13,0h73.49l13.52,32.78h-71.41l-15.6-32.78Zm74.73,0h71.11l11.44,32.78h-69.03l-13.52-32.78Zm77.15,0h71.12l9.36,32.78h-69.05l-11.44-32.78Zm72.31,0h73.56l7.29,32.78h-71.48l-9.36-32.78Zm74.73,0h71.27l5.21,32.78h-69.19l-7.29-32.78Zm77.05,0h71.28l3.13,32.78h-69.2l-5.21-32.78Zm72.43,0h73.6l1.05,32.78h-71.52l-3.13-32.78Zm74.74,0h71.32l-1.03,32.78h-69.24l-1.05-32.78Zm77.03,0h71.32l-3.11,32.78h-69.24l1.03-32.78Zm72.47,0h73.59l-5.19,32.78h-71.51l3.11-32.78Zm74.74,0h71.25l-7.27,32.78h-69.16l5.18-32.78Zm77.09,0h71.23l-9.35,32.78h-69.15l7.27-32.78Zm72.42,0h73.55l-11.42,32.78h-71.47l9.35-32.78Zm74.76,0h71.05l-13.5,32.78h-68.97l11.42-32.78Zm77.22,0h71.03l-15.58,32.78h-68.95l13.5-32.78Zm72.29,0h73.46l-17.66,32.78h-71.38l15.58-32.78Zm74.76,0h70.77l-19.74,32.78h-68.69l17.66-32.78Zm77.42,0h70.73l-21.82,32.78h-68.65l19.74-32.78Zm72.1,0h73.35l-23.89,32.78h-71.28l21.82-32.78Zm74.76,0h70.39l-25.98,32.78h-68.31l23.9-32.78Zm77.67,0h70.35l-28.05,32.78h-68.27l25.97-32.78Zm71.86,0h73.21l-30.13,32.78h-71.14l28.05-32.78Zm74.77,0h69.96l-32.21,32.78h-67.89l30.13-32.78Zm77.97,0h69.92l-34.29,32.78h-67.84l32.21-32.78Zm71.57,0h73.06l-36.37,32.78h-70.99l34.29-32.78Zm74.77,0h69.5l-38.45,32.78h-67.42l36.37-32.78Zm78.29,0h69.43l-40.52,32.78h-67.36l38.45-32.78Zm71.25,0h72.9l-42.6,32.78h-70.83l40.52-32.78Zm74.77,0h68.98l-44.68,32.78h-66.9l42.6-32.78Zm78.64,0h68.92l-46.76,32.78h-66.84l44.68-32.78Zm70.91,0h72.72l-48.84,32.78h-70.65l46.76-32.78Zm1.63-1.14l46.77-32.78h74.88l-48.85,32.78h-72.8Zm123.69-32.78h70.61l-50.93,32.78h-68.52l48.84-32.78Zm8.5-5.71l48.84-32.78h73.04l-50.92,32.78h-70.97Zm50.54-33.92l48.84-32.78h75.19l-50.92,32.78h-73.12Zm57.34-38.48l48.84-32.78h77.64l-50.92,32.78h-75.56Zm50.55-33.92l48.84-32.78h79.79l-50.92,32.78h-77.71Zm57.34-38.48l48.84-32.78h82.23l-50.92,32.78h-80.15Zm50.54-33.92l48.84-32.78h84.38l-50.92,32.78h-82.3Zm-33.71-38.49l46.76-32.78h91.09l-48.84,32.78h-89.01Zm48.39-33.92l46.76-32.77h93.24l-48.84,32.77h-91.16Zm142.05-32.77h88.97l-50.91,32.77h-86.89l48.84-32.77Zm8.5-5.71l48.84-32.78h91.41l-50.92,32.78h-89.33Zm50.54-33.92l48.84-32.77h93.56l-50.92,32.77h-91.48Zm57.35-38.48l48.84-32.78h96l-50.92,32.78h-93.92Zm50.54-33.92l48.84-32.78h98.15l-50.92,32.78h-96.07Zm57.34-38.48l48.84-32.78h100.59l-50.92,32.78h-98.51Zm50.54-33.92l48.84-32.78h102.74l-50.92,32.78h-100.66Zm-108.98,0h-101.14l44.68-32.78h103.22l-46.76,32.78Zm-110.79,0h-101.2l42.6-32.78h103.28l-44.68,32.78Zm-210,0h-101.65l38.45-32.78h103.73l-40.52,32.78Zm-110.45,0h-101.71l36.36-32.78h103.79l-38.45,32.78Zm-210.35,0h-102.14l32.21-32.78h104.21l-34.29,32.78Zm-110.14,0h-102.18l30.13-32.78h104.26l-32.21,32.78Zm-210.67,0h-102.57l25.97-32.78h104.65l-28.05,32.78Zm-109.85,0h-102.61l23.9-32.78h104.69l-25.97,32.78Zm-210.96,0h-102.95l19.74-32.78h105.02l-21.82,32.78Zm-109.6,0h-102.98l17.66-32.78h105.06l-19.74,32.78Zm-211.22,0h-103.24l13.5-32.78h105.32l-15.58,32.78Zm-109.41,0h-103.27l11.42-32.78h105.35l-13.5,32.78Zm-211.43,0h-103.45l7.27-32.78h105.52l-9.34,32.78Zm-109.29,0h-103.46l5.19-32.78h105.54l-7.27,32.78Zm-104.61,0h-105.8l3.11-32.78h107.88l-5.19,32.78Zm-102.16-38.48l3.11-32.78h110.32l-5.18,32.78h-108.25Zm-1.15,0h-105.97l1.03-32.78h108.05l-3.11,32.78Zm-111.68,0h-105.97l-1.05-32.78h108.05l-1.03,32.78Zm-107.12,0h-108.25l-3.13-32.78h110.33l1.05,32.78Zm-109.4,0h-105.94l-5.21-32.78h108.02l3.13,32.78Zm-111.72,0h-105.93l-7.28-32.78h108l5.21,32.78Zm-107.09,0h-108.22l-9.37-32.78h110.3l7.29,32.78Zm1.27,5.71l7.29,32.78h-105.78l-9.36-32.78h107.86Zm-99.68,32.78h-103.34l-11.45-32.78h105.42l9.36,32.78Zm-109.38,0h-103.32l-13.52-32.78h105.4l11.44,32.78Zm-211.53,0h-103.09l-17.68-32.78h105.16l15.6,32.78Zm-109.57,0h-103.05l-19.76-32.78h105.13l17.68,32.78Zm-211.36,0h-102.74l-23.91-32.78h104.82l21.83,32.78Zm-109.8,0h-102.7l-26-32.78h104.78l23.92,32.78ZM-.41,74.24h-102.33l-30.15-32.78H-28.48L-.41,74.24Zm-110.08,0h-102.28l-32.23-32.78h104.36l30.15,32.78Zm-210.86,0h-101.87l-36.39-32.78h103.95l34.31,32.78Zm-110.4,0h-101.82l-38.46-32.78h103.89l36.39,32.78Zm-210.56,0h-101.37l-42.62-32.78h103.45l40.54,32.78Zm-110.73,0h-101.31l-44.7-32.78h103.39l42.62,32.78Zm-210.23,0h-100.84l-48.86-32.78h102.92l46.78,32.78Zm56.56,39.63l46.78,32.78h-96.25l-48.86-32.78h98.33Zm103.34,72.4l46.78,32.77h-91.66l-48.86-32.77h93.74Zm103.34,72.4l46.78,32.77h-87.07l-48.86-32.77h89.15Zm-38.59,33.92h87l46.78,32.78h-84.92l-48.86-32.78Zm141.92,38.48l46.78,32.78h-82.48l-48.86-32.78h84.55Zm103.34,72.4l46.78,32.78h-77.88l-48.86-32.78h79.96Zm103.33,72.4l46.78,32.78h-73.29l-48.86-32.78h75.37Zm83.12,106.32h68.63l46.78,32.78h-66.55l-48.86-32.78Zm3526.38,32.78h-66.37l48.84-32.78h68.45l-50.92,32.78Zm449.91-289.61h-84.74l48.84-32.78h86.82l-50.92,32.78Zm449.9-289.6h-103.1l48.84-32.78h105.18l-50.92,32.78Zm-167.75-32.78l-46.77,32.78h-103.58l42.32-31.05-1.27-1.73h109.29Zm-159.99,32.78h-103.64l42.61-32.78h105.72l-44.68,32.78Zm-174.36-32.78l-40.52,32.78h-104.09l36.57-31.18-1.37-1.6h109.41Zm-153.41,32.78h-104.15l36.37-32.78h106.23l-38.45,32.78Zm-180.94-32.78l-34.29,32.78h-104.57l30.81-31.35-1.45-1.43h109.51Zm-146.86,32.78h-104.62l30.13-32.78h106.7l-32.21,32.78Zm-187.5-32.78l-28.05,32.78h-105.01l25.02-31.58-1.52-1.2h109.55Zm-140.34,32.78h-105.05l23.9-32.78h107.13l-25.97,32.78Zm-194.03-32.78l-21.82,32.78h-105.39l19.2-31.88-1.5-.9h109.5Zm-133.86,32.78h-105.42l17.66-32.78h107.49l-19.74,32.78Zm-200.52-32.78l-15.58,32.78h-105.68l13.29-32.26-1.25-.52h109.23Zm-127.43,32.78h-105.71l11.42-32.78h107.79l-13.5,32.78ZM1945.32,2.98l-9.35,32.78h-105.88l7.26-32.73-.21-.05h108.18Zm-121.07,32.78h-105.9l5.19-32.78h107.97l-7.27,32.78ZM942.02,2.98l9.36,32.78h-105.78l-11.44-32.78h107.86Zm-102.46,32.78h-105.76l-13.52-32.78h109.03l-1.06.37,11.31,32.41ZM607.55,2.98l15.6,32.78h-105.53l-17.68-32.78h107.6Zm-96.41,32.78h-105.49l-19.76-32.78h109.45l-1.45.78,17.26,31.99ZM273.06,2.98l21.84,32.78h-105.18L165.8,2.98h107.26Zm-90.41,32.78h-105.14L51.52,2.98h109.55l-1.52,1.11,23.11,31.67ZM-61.44,2.98l28.07,32.78h-104.77L-168.29,2.98H-61.44Zm-84.45,32.78h-104.72L-282.84,2.98h109.53l-1.48,1.36,28.9,31.42ZM-395.95,2.98l34.31,32.78h-104.31L-502.34,2.98h106.39Zm-78.53,32.78h-104.26l-38.47-32.78h109.46l-1.4,1.55,34.67,31.23ZM-730.47,2.98l40.55,32.78h-103.81l-42.63-32.78h105.89Zm-72.63,32.78h-103.75l-44.7-32.78h109.33l-1.3,1.69,40.42,31.09ZM-1064.99,2.98l46.78,32.78h-103.28l-48.86-32.78h105.36Z" style="fill:#6f097a"/></g></g><rect width="2999.95" height="1999.97" y=".03" style="fill:#fff;mix-blend-mode:overlay;opacity:.2"/></g></g></svg>